<svg xmlns="http://www.w3.org/2000/svg" width="225.515" height="37.64" viewBox="0 0 225.515 37.64"><g id="eComchain-Logo" transform="translate(-0.357 -0.217)"><path id="Path_850" data-name="Path 850" d="M210.115,11.826l-4.275.753a3.108,3.108,0,0,0-.978-1.927A2.958,2.958,0,0,0,202.875,10a3.244,3.244,0,0,0-2.581,1.121,5.785,5.785,0,0,0-.963,3.763,6.649,6.649,0,0,0,.978,4.124,3.214,3.214,0,0,0,2.634,1.2,2.92,2.92,0,0,0,2.025-.7,4.222,4.222,0,0,0,1.114-2.416l4.26.753a7.526,7.526,0,0,1-2.589,4.388,7.88,7.88,0,0,1-5.05,1.505,7.526,7.526,0,0,1-5.735-2.258A8.776,8.776,0,0,1,194.83,15.2a8.9,8.9,0,0,1,2.145-6.322,7.616,7.616,0,0,1,5.8-2.258,7.917,7.917,0,0,1,4.764,1.287,7.142,7.142,0,0,1,2.574,3.914ZM217.724.74V9.064a6.5,6.5,0,0,1,7.714-1.9,4.418,4.418,0,0,1,1.814,1.422,5.148,5.148,0,0,1,.82,1.9,17.13,17.13,0,0,1,.226,3.259v9.618h-4.335V14.708a12.8,12.8,0,0,0-.248-3.274,2.145,2.145,0,0,0-.873-1.106,2.807,2.807,0,0,0-1.565-.406,3.6,3.6,0,0,0-1.927.527,3.01,3.01,0,0,0-1.242,1.58,9.445,9.445,0,0,0-.391,3.123v8.218h-4.335V.74Zm18.228,11.236-3.936-.707a6.134,6.134,0,0,1,2.258-3.522A8.344,8.344,0,0,1,239.09,6.6a10.378,10.378,0,0,1,4.32.685,4.312,4.312,0,0,1,2,1.746,8.955,8.955,0,0,1,.579,3.883l-.045,5.065a17.579,17.579,0,0,0,.211,3.183,9.3,9.3,0,0,0,.753,2.2h-4.29q-.173-.429-.414-1.279-.105-.384-.158-.512a7.82,7.82,0,0,1-2.378,1.618,6.773,6.773,0,0,1-2.7.542,5.584,5.584,0,0,1-3.989-1.377,4.568,4.568,0,0,1-1.46-3.469,4.659,4.659,0,0,1,.662-2.476,4.335,4.335,0,0,1,1.912-1.663,14.54,14.54,0,0,1,3.447-1.016,23.586,23.586,0,0,0,4.215-1.069v-.437a2.258,2.258,0,0,0-.617-1.784,3.7,3.7,0,0,0-2.333-.534,3.108,3.108,0,0,0-1.806.452,3.161,3.161,0,0,0-1.046,1.618Zm5.8,3.522a27.093,27.093,0,0,1-2.642.662,7.948,7.948,0,0,0-2.363.753,1.806,1.806,0,0,0-.85,1.505,2.122,2.122,0,0,0,.677,1.573,2.371,2.371,0,0,0,1.731.662,3.763,3.763,0,0,0,2.258-.753,2.717,2.717,0,0,0,1.054-1.422,8.572,8.572,0,0,0,.173-2.115Zm8.534-10.74V.74h4.335V4.759Zm0,18.612V6.956h4.335V23.371Zm23.692,0h-4.335V15a12.928,12.928,0,0,0-.278-3.432,2.408,2.408,0,0,0-.9-1.212,2.581,2.581,0,0,0-1.505-.429,3.477,3.477,0,0,0-2.024.617,3.108,3.108,0,0,0-1.227,1.633,14.134,14.134,0,0,0-.331,3.763v7.421h-4.335V6.956h4.026V9.365a6.721,6.721,0,0,1,8.023-2.258,4.4,4.4,0,0,1,1.8,1.355,4.787,4.787,0,0,1,.85,1.821,13.546,13.546,0,0,1,.241,2.92Z" transform="translate(-48.113 -0.129)" fill="#fff"></path><path id="Path_851" data-name="Path 851" d="M11.129,18.026l4.32.753a7.089,7.089,0,0,1-2.634,3.62A7.729,7.729,0,0,1,8.3,23.64q-4.275,0-6.329-2.792a9.385,9.385,0,0,1-1.6-5.682A9.058,9.058,0,0,1,2.5,8.784a7.014,7.014,0,0,1,5.389-2.31A7.278,7.278,0,0,1,13.635,8.9q2.115,2.416,2.024,7.4H4.815a4.388,4.388,0,0,0,1.046,3.01,3.281,3.281,0,0,0,2.506,1.069,2.657,2.657,0,0,0,1.716-.557A3.432,3.432,0,0,0,11.129,18.026Zm.248-4.388a4.177,4.177,0,0,0-.971-2.86A3.01,3.01,0,0,0,8.149,9.8,3.01,3.01,0,0,0,5.8,10.831a4,4,0,0,0-.911,2.807Zm22.345,1.279,4.433,1.407a9.934,9.934,0,0,1-3.387,5.5,9.663,9.663,0,0,1-6.021,1.8,9.731,9.731,0,0,1-7.406-3.078q-2.9-3.078-2.9-8.452,0-5.652,2.92-8.775A10,10,0,0,1,29.033.227,9.407,9.407,0,0,1,35.807,2.68a8.926,8.926,0,0,1,2.28,4.147L33.572,7.911A4.674,4.674,0,0,0,28.8,4.148a5.148,5.148,0,0,0-4.079,1.806Q23.156,7.76,23.156,11.8q0,4.29,1.543,6.111a5.012,5.012,0,0,0,3.989,1.806,4.576,4.576,0,0,0,3.131-1.159,6.728,6.728,0,0,0,1.9-3.643Zm7.315-.105A8.866,8.866,0,0,1,42.1,10.628a7.308,7.308,0,0,1,3.01-3.086,8.956,8.956,0,0,1,4.358-1.061,8.181,8.181,0,0,1,6.1,2.416A8.346,8.346,0,0,1,57.941,15a8.444,8.444,0,0,1-2.386,6.126,8.113,8.113,0,0,1-6.021,2.446,9.513,9.513,0,0,1-4.29-.978,6.984,6.984,0,0,1-3.108-3.01,9.949,9.949,0,0,1-1.1-4.771Zm4.448.233a5.426,5.426,0,0,0,1.159,3.763,3.763,3.763,0,0,0,5.7,0A5.509,5.509,0,0,0,53.5,15.045a5.4,5.4,0,0,0-1.159-3.7,3.763,3.763,0,0,0-5.7,0,5.434,5.434,0,0,0-1.151,3.7ZM61.049,6.827h4V9.085a6.435,6.435,0,0,1,5.11-2.612,5.5,5.5,0,0,1,2.732.647,4.982,4.982,0,0,1,1.874,1.964,7.571,7.571,0,0,1,2.333-1.957,5.72,5.72,0,0,1,2.672-.647,5.946,5.946,0,0,1,3.056.753,4.516,4.516,0,0,1,1.866,2.152,9.34,9.34,0,0,1,.444,3.394V23.241H80.8v-9.37a7,7,0,0,0-.444-3.146A2.055,2.055,0,0,0,78.5,9.8a2.958,2.958,0,0,0-1.716.557,3.078,3.078,0,0,0-1.159,1.626,11.7,11.7,0,0,0-.354,3.387v7.872H70.931V14.255A12.463,12.463,0,0,0,70.7,11.17a1.972,1.972,0,0,0-.753-1.031A2.258,2.258,0,0,0,68.628,9.8a3.161,3.161,0,0,0-1.806.542A2.965,2.965,0,0,0,65.67,11.9a11.59,11.59,0,0,0-.346,3.379v7.963H61.049Z" transform="translate(0 0)" fill="#f80d19"></path><path id="Path_852" data-name="Path 852" d="M143.685,3.418H131a3.319,3.319,0,0,0-.369,0C129.348,3.7,120.851,5.9,122,15.731c0,0,1.076,7.21,7.639,8.053h8.015a2.544,2.544,0,0,0,2.258-2.747s0-2.514-2.115-2.514h-6.63a4.847,4.847,0,0,1-4.1-4.884,5.486,5.486,0,0,1,3.883-5.11,1.829,1.829,0,0,1,.474-.12l10.341-.038,1.648.053a6.292,6.292,0,0,1,4.169,6.058,2.175,2.175,0,0,0,2.175,1.942,2.756,2.756,0,0,0,2.574-2.055s1.505-8.617-8.4-10.89Z" transform="translate(-30.067 -0.791)" fill="#fff"></path><path id="Path_853" data-name="Path 853" d="M155.483,23.845h12.7a3.319,3.319,0,0,0,.369,0c1.287-.278,9.784-2.484,8.64-12.313,0,0-1.076-7.21-7.639-8.053h-8.023a2.544,2.544,0,0,0-2.258,2.747s0,2.514,2.115,2.514h6.63a4.847,4.847,0,0,1,4.087,4.914,5.486,5.486,0,0,1-3.883,5.11,1.829,1.829,0,0,1-.474.12l-10.341.038-1.648-.053a6.292,6.292,0,0,1-4.169-6.058,2.175,2.175,0,0,0-2.175-1.942,2.756,2.756,0,0,0-2.574,2.055s-1.505,8.617,8.4,10.89Z" transform="translate(-36.22 -0.807)" fill="#f80d19"></path><g id="Group_758" data-name="Group 758" transform="translate(1.467 28.854)"><path id="Path_854" data-name="Path 854" d="M6.79,42.907l.918.128a3.763,3.763,0,0,1-1.234,1.829,3.1,3.1,0,0,1-1.874.61,2.672,2.672,0,0,1-2.009-.753,3.01,3.01,0,0,1-.753-2.19,4.343,4.343,0,0,1,1.129-3.078,3.274,3.274,0,0,1,2.5-1.084,2.664,2.664,0,0,1,1.761.542,2.326,2.326,0,0,1,.8,1.58l-.865.083a1.859,1.859,0,0,0-.564-1.114,1.641,1.641,0,0,0-1.106-.369,2.416,2.416,0,0,0-2.062,1.121,3.876,3.876,0,0,0-.715,2.3,2.258,2.258,0,0,0,.557,1.6,1.8,1.8,0,0,0,1.37.557,2.047,2.047,0,0,0,1.31-.467,2.627,2.627,0,0,0,.843-1.294Zm2.356.527a3.462,3.462,0,0,1,.865-2.416,2.423,2.423,0,0,1,1.881-.753,1.979,1.979,0,0,1,1.505.564,2.07,2.07,0,0,1,.557,1.505,3.68,3.68,0,0,1-.354,1.6,2.619,2.619,0,0,1-2.363,1.505,2.3,2.3,0,0,1-1.069-.248,1.731,1.731,0,0,1-.753-.707,2.122,2.122,0,0,1-.271-1.054ZM10,43.358a1.505,1.505,0,0,0,.339,1.069,1.144,1.144,0,0,0,.865.361,1.437,1.437,0,0,0,.549-.113,1.581,1.581,0,0,0,.5-.339,2.258,2.258,0,0,0,.4-.512,3.01,3.01,0,0,0,.263-.625,2.95,2.95,0,0,0,.151-.9,1.505,1.505,0,0,0-.346-1.054,1.129,1.129,0,0,0-.865-.376,1.453,1.453,0,0,0-.753.188,1.957,1.957,0,0,0-.6.557,2.476,2.476,0,0,0-.391.85,3.507,3.507,0,0,0-.113.888Zm5.118,1.972,1.054-4.982h.753l-.188.865a4.124,4.124,0,0,1,.948-.753,1.9,1.9,0,0,1,.9-.233,1.347,1.347,0,0,1,.963.331,1.151,1.151,0,0,1,.346.881,4.855,4.855,0,0,1-.12.873l-.64,3.01H18.3l.67-3.161a3.575,3.575,0,0,0,.1-.677.519.519,0,0,0-.173-.406.753.753,0,0,0-.5-.158,1.693,1.693,0,0,0-1.174.467A3.01,3.01,0,0,0,16.469,43l-.489,2.318Zm6.126,0,1.031-4.982h.753l-.188.865a4.124,4.124,0,0,1,.948-.753,1.9,1.9,0,0,1,.9-.233,1.347,1.347,0,0,1,.963.331,1.151,1.151,0,0,1,.384.873,4.855,4.855,0,0,1-.12.873l-.64,3.01h-.843l.67-3.161a3.575,3.575,0,0,0,.1-.677.519.519,0,0,0-.173-.406.753.753,0,0,0-.5-.158,1.693,1.693,0,0,0-1.174.467A3.01,3.01,0,0,0,22.6,42.99l-.489,2.318Zm9.836-1.7.835.083a2.5,2.5,0,0,1-.828,1.151,2.3,2.3,0,0,1-1.543.557,2.107,2.107,0,0,1-1.031-.256,1.686,1.686,0,0,1-.715-.753,2.454,2.454,0,0,1-.256-1.054,3.515,3.515,0,0,1,.384-1.588,2.709,2.709,0,0,1,.993-1.144,2.469,2.469,0,0,1,1.317-.376,1.919,1.919,0,0,1,1.437.557,2.077,2.077,0,0,1,.542,1.505,4.417,4.417,0,0,1-.068.753h-3.7a2.04,2.04,0,0,0,0,.263,1.565,1.565,0,0,0,.324,1.069,1.024,1.024,0,0,0,.8.369,1.543,1.543,0,0,0,.865-.286,1.866,1.866,0,0,0,.647-.85Zm-2.5-1.234h2.83v-.188a1.37,1.37,0,0,0-.324-.978,1.091,1.091,0,0,0-.828-.339,1.505,1.505,0,0,0-1,.376,2.258,2.258,0,0,0-.677,1.129Zm8.4,1.114.858.09a2.852,2.852,0,0,1-.918,1.385,2.183,2.183,0,0,1-1.355.452,1.769,1.769,0,0,1-1.332-.527,2.024,2.024,0,0,1-.512-1.505,4.154,4.154,0,0,1,.331-1.55,2.6,2.6,0,0,1,.941-1.2,2.438,2.438,0,0,1,1.392-.414,1.784,1.784,0,0,1,1.287.452,1.58,1.58,0,0,1,.474,1.159l-.82.083a1.008,1.008,0,0,0-.278-.753.986.986,0,0,0-.753-.271,1.34,1.34,0,0,0-.9.324,2.13,2.13,0,0,0-.595.986,4.079,4.079,0,0,0-.218,1.272,1.4,1.4,0,0,0,.286.956.9.9,0,0,0,.7.316,1.242,1.242,0,0,0,.8-.316,2.07,2.07,0,0,0,.61-.941Zm4.109,1.129-.143.692a2.386,2.386,0,0,1-.595.083,1.249,1.249,0,0,1-.82-.248.632.632,0,0,1-.226-.512,5.081,5.081,0,0,1,.12-.753l.61-2.9h-.677l.135-.655h.677l.263-1.227.986-.587-.376,1.814h.843L41.748,41h-.843l-.564,2.755a5.087,5.087,0,0,0-.105.632.294.294,0,0,0,.09.233.421.421,0,0,0,.286.083A2.085,2.085,0,0,0,41.094,44.638Zm1.385.692,1.054-4.982h.858L43.351,45.33Zm1.257-5.923.2-.963H44.8l-.2.963Zm1.656,5.923,1.054-4.982H47.2l-.188.865a4.124,4.124,0,0,1,.948-.753,1.9,1.9,0,0,1,.9-.233,1.347,1.347,0,0,1,.963.331,1.151,1.151,0,0,1,.346.881,4.854,4.854,0,0,1-.12.873l-.64,3.01h-.835l.67-3.161a3.575,3.575,0,0,0,.1-.677.519.519,0,0,0-.173-.406.753.753,0,0,0-.5-.158,1.693,1.693,0,0,0-1.174.467A3.01,3.01,0,0,0,46.738,43l-.489,2.318Zm6.081.452.865.083a.865.865,0,0,0,.068.437.534.534,0,0,0,.256.226,1.505,1.505,0,0,0,.6.105,1.4,1.4,0,0,0,1.121-.4,3.01,3.01,0,0,0,.414-1.167l.083-.406a2,2,0,0,1-1.422.67,1.671,1.671,0,0,1-1.279-.557,2.258,2.258,0,0,1-.512-1.573,3.191,3.191,0,0,1,1.37-2.612,2.107,2.107,0,0,1,1.151-.361,1.678,1.678,0,0,1,1.505.933l.2-.813h.753l-1.016,4.817a3.989,3.989,0,0,1-.4,1.2,1.829,1.829,0,0,1-.753.685,2.431,2.431,0,0,1-1.114.241,3.153,3.153,0,0,1-1.046-.158,1.325,1.325,0,0,1-.655-.452A1.136,1.136,0,0,1,51.449,46a1.505,1.505,0,0,1,.023-.218Zm1.076-2.657a2.258,2.258,0,0,0,.1.753,1.2,1.2,0,0,0,.406.549.978.978,0,0,0,.587.188,1.453,1.453,0,0,0,.843-.294,2.04,2.04,0,0,0,.677-.911,3.01,3.01,0,0,0,.233-1.159,1.37,1.37,0,0,0-.346-.978,1.129,1.129,0,0,0-.85-.361,1.219,1.219,0,0,0-.61.166,1.814,1.814,0,0,0-.549.5,2.416,2.416,0,0,0-.384.813,3.01,3.01,0,0,0-.113.722Zm8.617,2.205,1.46-6.886h2.152a5.908,5.908,0,0,1,.873.045,2.175,2.175,0,0,1,.753.278,1.347,1.347,0,0,1,.5.542,1.746,1.746,0,0,1-.105,1.791,1.934,1.934,0,0,1-.963.655,1.671,1.671,0,0,1,.843.549,1.385,1.385,0,0,1,.278.865,2.009,2.009,0,0,1-.331,1.091,2.258,2.258,0,0,1-.873.805,2.581,2.581,0,0,1-1.212.286Zm1.1-.753h1.588a5.486,5.486,0,0,0,.85-.045,1.874,1.874,0,0,0,.753-.256,1.279,1.279,0,0,0,.429-.474,1.31,1.31,0,0,0,.158-.617.9.9,0,0,0-.309-.753,1.927,1.927,0,0,0-1.167-.248h-1.8Zm.655-3.2h1.407a2.551,2.551,0,0,0,1.453-.316,1.076,1.076,0,0,0,.444-.933.9.9,0,0,0-.135-.5.8.8,0,0,0-.369-.309,2.589,2.589,0,0,0-.865-.1H63.348Zm8.8,3.048a2.544,2.544,0,0,1-1.859,1.016,1.332,1.332,0,0,1-.918-.331,1.061,1.061,0,0,1-.361-.813,6.134,6.134,0,0,1,.158-1.084l.595-2.867h.858l-.677,3.191a3.175,3.175,0,0,0-.083.617.564.564,0,0,0,.173.437.753.753,0,0,0,.512.158,1.55,1.55,0,0,0,.707-.173,1.866,1.866,0,0,0,.595-.467,2.446,2.446,0,0,0,.406-.7,6.172,6.172,0,0,0,.241-.9l.452-2.16h.858l-1.054,4.99h-.79Zm2.77-.805.858-.053a1.505,1.505,0,0,0,.113.625.9.9,0,0,0,.421.421,1.505,1.505,0,0,0,.715.166,1.362,1.362,0,0,0,.858-.226.662.662,0,0,0,.286-.534.632.632,0,0,0-.173-.421,2.709,2.709,0,0,0-.858-.489,8.2,8.2,0,0,1-.873-.406,1.4,1.4,0,0,1-.482-.452,1.114,1.114,0,0,1-.158-.6,1.31,1.31,0,0,1,.474-1.016A1.934,1.934,0,0,1,77,40.213a2.13,2.13,0,0,1,1.445.437,1.505,1.505,0,0,1,.512,1.144l-.843.053a.956.956,0,0,0-.324-.715,1.272,1.272,0,0,0-.858-.263,1.069,1.069,0,0,0-.692.2.572.572,0,0,0-.248.437.527.527,0,0,0,.211.414,3.583,3.583,0,0,0,.753.376,4.975,4.975,0,0,1,1.242.67,1.264,1.264,0,0,1,.406.948,1.332,1.332,0,0,1-.233.753,1.58,1.58,0,0,1-.7.572,2.687,2.687,0,0,1-1.114.211,2.536,2.536,0,0,1-1.505-.429,1.505,1.505,0,0,1-.564-1.4ZM79.95,45.33l1.031-4.982h.858l-1.054,4.99Zm1.257-5.923.2-.963h.858l-.2.963Zm1.656,5.923,1.054-4.982h.753l-.188.865a4.124,4.124,0,0,1,.948-.753,1.9,1.9,0,0,1,.9-.233,1.347,1.347,0,0,1,.963.331,1.151,1.151,0,0,1,.346.881,4.854,4.854,0,0,1-.12.873l-.64,3.01h-.858l.67-3.161a3.574,3.574,0,0,0,.1-.677.519.519,0,0,0-.173-.406.753.753,0,0,0-.5-.158,1.693,1.693,0,0,0-1.174.467A3.01,3.01,0,0,0,84.187,43L83.7,45.315Zm9.836-1.7.835.083a2.5,2.5,0,0,1-.828,1.167,2.3,2.3,0,0,1-1.543.557,2.107,2.107,0,0,1-1.031-.256,1.686,1.686,0,0,1-.715-.753,2.454,2.454,0,0,1-.241-1.114,3.515,3.515,0,0,1,.384-1.588,2.709,2.709,0,0,1,.993-1.144,2.469,2.469,0,0,1,1.317-.376,1.919,1.919,0,0,1,1.437.557,2.077,2.077,0,0,1,.542,1.505,4.418,4.418,0,0,1-.068.753h-3.71a2.016,2.016,0,0,0,0,.263,1.565,1.565,0,0,0,.324,1.069,1.024,1.024,0,0,0,.8.369,1.543,1.543,0,0,0,.865-.286,1.866,1.866,0,0,0,.64-.805ZM90.2,42.4h2.822v-.188a1.37,1.37,0,0,0-.324-.978,1.091,1.091,0,0,0-.828-.339,1.505,1.505,0,0,0-1,.376A2.258,2.258,0,0,0,90.2,42.4Zm5,1.227.858-.053a1.505,1.505,0,0,0,.113.625.9.9,0,0,0,.421.421,1.505,1.505,0,0,0,.715.166,1.362,1.362,0,0,0,.858-.226.662.662,0,0,0,.286-.534.632.632,0,0,0-.173-.421,2.709,2.709,0,0,0-.858-.489,8.2,8.2,0,0,1-.873-.406,1.4,1.4,0,0,1-.482-.452,1.114,1.114,0,0,1-.158-.6,1.31,1.31,0,0,1,.474-1.016,1.934,1.934,0,0,1,1.332-.421,2.13,2.13,0,0,1,1.445.437,1.505,1.505,0,0,1,.512,1.144l-.843.053a.956.956,0,0,0-.324-.715,1.272,1.272,0,0,0-.858-.263,1.069,1.069,0,0,0-.692.2.572.572,0,0,0-.248.437.527.527,0,0,0,.211.414,3.582,3.582,0,0,0,.753.376,4.983,4.983,0,0,1,1.242.67,1.264,1.264,0,0,1,.406.948,1.332,1.332,0,0,1-.233.753,1.58,1.58,0,0,1-.7.572,2.687,2.687,0,0,1-1.114.211,2.536,2.536,0,0,1-1.505-.429A1.505,1.505,0,0,1,95.205,43.622Z" transform="translate(-1.832 -38.291)" fill="#fff"></path><path id="Path_855" data-name="Path 855" d="M133.305,44.228l.858-.053a1.505,1.505,0,0,0,.113.625.9.9,0,0,0,.421.421,1.505,1.505,0,0,0,.715.166,1.362,1.362,0,0,0,.858-.226.662.662,0,0,0,.286-.534.632.632,0,0,0-.173-.421,2.71,2.71,0,0,0-.858-.489,8.2,8.2,0,0,1-.873-.406,1.4,1.4,0,0,1-.482-.452,1.114,1.114,0,0,1-.158-.6,1.31,1.31,0,0,1,.474-1.016,1.934,1.934,0,0,1,1.332-.421,2.137,2.137,0,0,1,1.445.437,1.505,1.505,0,0,1,.512,1.144l-.843.053a.956.956,0,0,0-.324-.715,1.272,1.272,0,0,0-.858-.263,1.069,1.069,0,0,0-.692.2.572.572,0,0,0-.248.437.527.527,0,0,0,.211.414,3.582,3.582,0,0,0,.753.376,4.975,4.975,0,0,1,1.242.67,1.264,1.264,0,0,1,.406.948,1.332,1.332,0,0,1-.233.753,1.581,1.581,0,0,1-.7.572,2.687,2.687,0,0,1-1.114.211,2.536,2.536,0,0,1-1.505-.429,1.505,1.505,0,0,1-.564-1.4Z" transform="translate(-34.355 -38.897)" fill="#fff"></path><path id="Path_856" data-name="Path 856" d="M144.382,43.622l.835.083a2.5,2.5,0,0,1-.828,1.167,2.3,2.3,0,0,1-1.543.557,2.107,2.107,0,0,1-1.031-.256,1.686,1.686,0,0,1-.715-.753,2.454,2.454,0,0,1-.241-1.114,3.514,3.514,0,0,1,.384-1.588,2.709,2.709,0,0,1,.993-1.144,2.469,2.469,0,0,1,1.317-.376,1.919,1.919,0,0,1,1.437.557,2.077,2.077,0,0,1,.542,1.505,4.42,4.42,0,0,1-.068.753h-3.748a2.018,2.018,0,0,0,0,.263,1.565,1.565,0,0,0,.324,1.069,1.024,1.024,0,0,0,.8.369,1.543,1.543,0,0,0,.865-.286A1.866,1.866,0,0,0,144.382,43.622Zm-2.5-1.234h2.845V42.2a1.37,1.37,0,0,0-.324-.978,1.091,1.091,0,0,0-.828-.339,1.505,1.505,0,0,0-1,.376,2.258,2.258,0,0,0-.692,1.129Zm5,1.227.858-.053a1.505,1.505,0,0,0,.113.625.9.9,0,0,0,.421.421,1.505,1.505,0,0,0,.715.166,1.362,1.362,0,0,0,.858-.226.662.662,0,0,0,.286-.534.632.632,0,0,0-.173-.421,2.709,2.709,0,0,0-.858-.489,8.2,8.2,0,0,1-.873-.406,1.4,1.4,0,0,1-.482-.452,1.114,1.114,0,0,1-.158-.6,1.31,1.31,0,0,1,.474-1.016,1.934,1.934,0,0,1,1.332-.421,2.13,2.13,0,0,1,1.445.437,1.505,1.505,0,0,1,.512,1.144l-.835.06a.956.956,0,0,0-.324-.715,1.272,1.272,0,0,0-.858-.263,1.069,1.069,0,0,0-.692.2.572.572,0,0,0-.248.437.527.527,0,0,0,.211.414,3.582,3.582,0,0,0,.753.376,4.982,4.982,0,0,1,1.242.67,1.264,1.264,0,0,1,.406.948,1.332,1.332,0,0,1-.233.753,1.58,1.58,0,0,1-.7.572,2.687,2.687,0,0,1-1.114.211,2.536,2.536,0,0,1-1.505-.429,1.505,1.505,0,0,1-.572-1.407Zm10.935,1.016-.143.692a2.386,2.386,0,0,1-.595.083,1.249,1.249,0,0,1-.82-.248.632.632,0,0,1-.226-.512,5.08,5.08,0,0,1,.12-.753l.61-2.9h-.677l.135-.655h.677l.263-1.227.986-.587-.384,1.814h.843l-.143.655h-.843l-.587,2.755a5.1,5.1,0,0,0-.105.632.293.293,0,0,0,.09.233.421.421,0,0,0,.286.083A2.077,2.077,0,0,0,157.823,44.631Zm1.565-1.2a3.462,3.462,0,0,1,.865-2.416,2.423,2.423,0,0,1,1.882-.753,1.979,1.979,0,0,1,1.505.564,2.07,2.07,0,0,1,.557,1.505,3.68,3.68,0,0,1-.354,1.6,2.619,2.619,0,0,1-2.363,1.505,2.3,2.3,0,0,1-1.069-.248,1.731,1.731,0,0,1-.753-.707,2.122,2.122,0,0,1-.271-1.054Zm.858-.083a1.505,1.505,0,0,0,.339,1.069,1.144,1.144,0,0,0,.865.361,1.438,1.438,0,0,0,.549-.113,1.58,1.58,0,0,0,.5-.339,2.258,2.258,0,0,0,.4-.512,3.011,3.011,0,0,0,.263-.625,2.95,2.95,0,0,0,.151-.9,1.505,1.505,0,0,0-.346-1.054,1.129,1.129,0,0,0-.865-.376,1.452,1.452,0,0,0-.753.188,1.957,1.957,0,0,0-.6.557,2.476,2.476,0,0,0-.391.85,3.508,3.508,0,0,0-.113.9Zm14.081-.444.918.128a3.763,3.763,0,0,1-1.272,1.806,3.1,3.1,0,0,1-1.874.61,2.672,2.672,0,0,1-2.009-.753,3.01,3.01,0,0,1-.753-2.19,4.342,4.342,0,0,1,1.129-3.078,3.274,3.274,0,0,1,2.5-1.084,2.664,2.664,0,0,1,1.791.587,2.326,2.326,0,0,1,.8,1.58l-.866.083a1.859,1.859,0,0,0-.564-1.114,1.641,1.641,0,0,0-1.106-.369,2.416,2.416,0,0,0-2.062,1.121,3.876,3.876,0,0,0-.685,2.3,2.258,2.258,0,0,0,.527,1.618,1.8,1.8,0,0,0,1.37.557,2.047,2.047,0,0,0,1.31-.467,2.627,2.627,0,0,0,.85-1.332Zm2.348.527a3.462,3.462,0,0,1,.865-2.416,2.423,2.423,0,0,1,1.881-.753,1.979,1.979,0,0,1,1.505.564,2.07,2.07,0,0,1,.557,1.505,3.68,3.68,0,0,1-.354,1.6,2.619,2.619,0,0,1-2.363,1.505,2.3,2.3,0,0,1-1.069-.248,1.731,1.731,0,0,1-.753-.707,2.122,2.122,0,0,1-.271-1.054Zm.858-.083a1.505,1.505,0,0,0,.339,1.069,1.136,1.136,0,0,0,.865.361,1.438,1.438,0,0,0,.549-.113,1.58,1.58,0,0,0,.5-.339,2.258,2.258,0,0,0,.4-.512,3.011,3.011,0,0,0,.263-.625,2.958,2.958,0,0,0,.151-.9,1.505,1.505,0,0,0-.346-1.054,1.129,1.129,0,0,0-.865-.376,1.453,1.453,0,0,0-.753.188,1.957,1.957,0,0,0-.6.557,2.476,2.476,0,0,0-.391.85,3.5,3.5,0,0,0-.113.9Z" transform="translate(-36.227 -38.284)" fill="#fff"></path><path id="Path_857" data-name="Path 857" d="M196.39,45.939l1.054-4.99h.753l-.188.865a4.124,4.124,0,0,1,.948-.753,1.9,1.9,0,0,1,.9-.233,1.347,1.347,0,0,1,.963.331,1.152,1.152,0,0,1,.346.881,4.848,4.848,0,0,1-.12.873l-.64,3.01h-.858l.67-3.161a3.584,3.584,0,0,0,.1-.677.519.519,0,0,0-.173-.406.753.753,0,0,0-.5-.158,1.693,1.693,0,0,0-1.174.467,3.01,3.01,0,0,0-.753,1.611l-.489,2.318Z" transform="translate(-49.966 -38.901)" fill="#fff"></path><path id="Path_858" data-name="Path 858" d="M204.634,44.225l.858-.053a1.505,1.505,0,0,0,.113.625.9.9,0,0,0,.421.421,1.505,1.505,0,0,0,.715.166,1.362,1.362,0,0,0,.858-.226.662.662,0,0,0,.286-.534.632.632,0,0,0-.173-.421,2.71,2.71,0,0,0-.858-.489,8.2,8.2,0,0,1-.873-.406,1.4,1.4,0,0,1-.482-.452,1.114,1.114,0,0,1-.158-.6,1.309,1.309,0,0,1,.474-1.016,1.934,1.934,0,0,1,1.332-.421,2.13,2.13,0,0,1,1.445.437A1.505,1.505,0,0,1,209.1,42.4l-.843.053a.956.956,0,0,0-.324-.715,1.272,1.272,0,0,0-.858-.263,1.069,1.069,0,0,0-.67.233.572.572,0,0,0-.248.437.527.527,0,0,0,.211.414,3.582,3.582,0,0,0,.753.376,4.982,4.982,0,0,1,1.242.67,1.264,1.264,0,0,1,.406.948,1.332,1.332,0,0,1-.233.753,1.581,1.581,0,0,1-.7.572,2.687,2.687,0,0,1-1.114.211,2.536,2.536,0,0,1-1.505-.429A1.505,1.505,0,0,1,204.634,44.225Zm8.948.805a2.544,2.544,0,0,1-1.859,1.016,1.332,1.332,0,0,1-.941-.331,1.061,1.061,0,0,1-.361-.813,6.126,6.126,0,0,1,.158-1.084l.61-2.882h.858l-.677,3.191a3.168,3.168,0,0,0-.083.617.565.565,0,0,0,.173.437.753.753,0,0,0,.512.158,1.55,1.55,0,0,0,.707-.173,1.866,1.866,0,0,0,.595-.467,2.446,2.446,0,0,0,.406-.7,6.172,6.172,0,0,0,.241-.9l.459-2.152h.858l-1.054,4.99h-.79Zm2.679.9,1.054-4.99h.858l-.173.82a3.424,3.424,0,0,1,.858-.753,1.708,1.708,0,0,1,.82-.2,1.234,1.234,0,0,1,.753.248,1.166,1.166,0,0,1,.414.685,2.807,2.807,0,0,1,.813-.7,1.844,1.844,0,0,1,.9-.233,1.34,1.34,0,0,1,.948.294,1.084,1.084,0,0,1,.316.828,4.344,4.344,0,0,1-.113.753l-.677,3.214h-.813l.692-3.3a3.064,3.064,0,0,0,.09-.58.489.489,0,0,0-.158-.384.64.64,0,0,0-.444-.143,1.565,1.565,0,0,0-.753.233,1.678,1.678,0,0,0-.617.6,4.012,4.012,0,0,0-.384,1.151L220.13,45.9H219.2l.715-3.372a2.606,2.606,0,0,0,.075-.489.527.527,0,0,0-.158-.391.549.549,0,0,0-.4-.151,1.55,1.55,0,0,0-.753.233,1.821,1.821,0,0,0-.655.64,3.8,3.8,0,0,0-.414,1.174l-.5,2.356Zm12.531-1.7.835.083a2.5,2.5,0,0,1-.828,1.167,2.3,2.3,0,0,1-1.543.557,2.107,2.107,0,0,1-1.031-.256,1.686,1.686,0,0,1-.715-.753,2.453,2.453,0,0,1-.241-1.114,3.515,3.515,0,0,1,.384-1.588,2.709,2.709,0,0,1,.993-1.144,2.469,2.469,0,0,1,1.317-.376,1.919,1.919,0,0,1,1.437.557,2.077,2.077,0,0,1,.542,1.505,4.418,4.418,0,0,1-.068.753h-3.71a2.062,2.062,0,0,0,0,.263,1.565,1.565,0,0,0,.324,1.069,1.023,1.023,0,0,0,.8.369,1.543,1.543,0,0,0,.865-.286,1.866,1.866,0,0,0,.64-.805ZM226.294,43h2.83v-.188a1.37,1.37,0,0,0-.324-.978,1.091,1.091,0,0,0-.828-.339,1.505,1.505,0,0,0-1,.376A2.258,2.258,0,0,0,226.294,43Zm4.952,2.935,1.054-4.99h.753l-.211,1.016a3.485,3.485,0,0,1,.753-.858,1.264,1.264,0,0,1,.753-.278,1.505,1.505,0,0,1,.632.181l-.354.753a.82.82,0,0,0-.489-.158,1.332,1.332,0,0,0-.926.5,3.763,3.763,0,0,0-.753,1.791L232,45.934Z" transform="translate(-52.001 -38.895)" fill="#fff"></path><path id="Path_859" data-name="Path 859" d="M133.305,44.228l.858-.053a1.505,1.505,0,0,0,.113.625.9.9,0,0,0,.421.421,1.505,1.505,0,0,0,.715.166,1.362,1.362,0,0,0,.858-.226.662.662,0,0,0,.286-.534.632.632,0,0,0-.173-.421,2.71,2.71,0,0,0-.858-.489,8.2,8.2,0,0,1-.873-.406,1.4,1.4,0,0,1-.482-.452,1.114,1.114,0,0,1-.158-.6,1.31,1.31,0,0,1,.474-1.016,1.934,1.934,0,0,1,1.332-.421,2.137,2.137,0,0,1,1.445.437,1.505,1.505,0,0,1,.512,1.144l-.843.053a.956.956,0,0,0-.324-.715,1.272,1.272,0,0,0-.858-.263,1.069,1.069,0,0,0-.692.2.572.572,0,0,0-.248.437.527.527,0,0,0,.211.414,3.582,3.582,0,0,0,.753.376,4.975,4.975,0,0,1,1.242.67,1.264,1.264,0,0,1,.406.948,1.332,1.332,0,0,1-.233.753,1.581,1.581,0,0,1-.7.572,2.687,2.687,0,0,1-1.114.211,2.536,2.536,0,0,1-1.505-.429,1.505,1.505,0,0,1-.564-1.4Z" transform="translate(49.952 -38.897)" fill="#fff"></path><path id="Path_860" data-name="Path 860" d="M257.928,42.416A4.162,4.162,0,0,1,259,39.406a3.454,3.454,0,0,1,2.612-1.136,2.837,2.837,0,0,1,2.122.835,3.078,3.078,0,0,1,.82,2.258,4.245,4.245,0,0,1-.414,1.866,3.974,3.974,0,0,1-.753,1.114,3.635,3.635,0,0,1-1.008.753,3.477,3.477,0,0,1-1.505.339,3.01,3.01,0,0,1-1.505-.391,2.574,2.574,0,0,1-1.039-1.1,3.319,3.319,0,0,1-.406-1.528Zm.918.045a2.453,2.453,0,0,0,.256,1.114,1.851,1.851,0,0,0,.753.79,2.107,2.107,0,0,0,1.061.286,2.183,2.183,0,0,0,1.024-.248,2.875,2.875,0,0,0,.865-.7,3.311,3.311,0,0,0,.6-1.106,4.026,4.026,0,0,0,.218-1.287,2.258,2.258,0,0,0-.579-1.641,1.9,1.9,0,0,0-1.437-.61,2.536,2.536,0,0,0-1.927.926,3.552,3.552,0,0,0-.835,2.484Z" transform="translate(-65.189 -38.267)" fill="#fff"></path><path id="Path_861" data-name="Path 861" d="M196.39,45.939l1.054-4.99h.753l-.188.865a4.124,4.124,0,0,1,.948-.753,1.9,1.9,0,0,1,.9-.233,1.347,1.347,0,0,1,.963.331,1.152,1.152,0,0,1,.346.881,4.848,4.848,0,0,1-.12.873l-.64,3.01h-.858l.67-3.161a3.584,3.584,0,0,0,.1-.677.519.519,0,0,0-.173-.406.753.753,0,0,0-.5-.158,1.693,1.693,0,0,0-1.174.467,3.01,3.01,0,0,0-.753,1.611l-.489,2.318Z" transform="translate(4.071 -38.901)" fill="#fff"></path><path id="Path_862" data-name="Path 862" d="M276.24,45.356l1.453-6.886h.858L277.1,45.356Zm2.913,0,1.054-4.99h.858l-1.054,4.99Zm1.257-5.923.2-.963h.858l-.2.963Zm1.671,5.923,1.054-4.99h.753l-.188.865a4.125,4.125,0,0,1,.948-.753,1.9,1.9,0,0,1,.9-.233,1.347,1.347,0,0,1,.963.331,1.152,1.152,0,0,1,.346.881,4.845,4.845,0,0,1-.12.873l-.64,3.01h-.858l.67-3.161a3.584,3.584,0,0,0,.1-.677.519.519,0,0,0-.166-.376.753.753,0,0,0-.5-.158,1.693,1.693,0,0,0-1.174.467,3.011,3.011,0,0,0-.753,1.611l-.489,2.318Zm9.784-1.7.835.083a2.506,2.506,0,0,1-.828,1.167,2.3,2.3,0,0,1-1.543.557,2.107,2.107,0,0,1-1.031-.256,1.686,1.686,0,0,1-.715-.753,2.453,2.453,0,0,1-.241-1.114,3.514,3.514,0,0,1,.384-1.588,2.709,2.709,0,0,1,.993-1.144,2.468,2.468,0,0,1,1.317-.376,1.919,1.919,0,0,1,1.445.557,2.077,2.077,0,0,1,.542,1.505,4.42,4.42,0,0,1-.068.753h-3.71a2.062,2.062,0,0,0,0,.263,1.565,1.565,0,0,0,.324,1.069,1.024,1.024,0,0,0,.8.369,1.543,1.543,0,0,0,.865-.286,1.866,1.866,0,0,0,.632-.805Zm-2.5-1.234h2.83v-.188a1.37,1.37,0,0,0-.324-.978,1.091,1.091,0,0,0-.828-.339,1.505,1.505,0,0,0-1,.376,2.258,2.258,0,0,0-.64,1.129Z" transform="translate(-69.721 -38.317)" fill="#fff"></path></g></g></svg>