<svg xmlns="http://www.w3.org/2000/svg" xmlns:xlink="http://www.w3.org/1999/xlink" width="757.214" height="569.416" viewBox="0 0 757.214 569.416"><defs><linearGradient id="linear-gradient" y1="0.5" x2="0.987" y2="0.5" gradientUnits="objectBoundingBox"><stop offset="0" stop-color="#9a81ff"></stop><stop offset="1" stop-color="#2a6eb0"></stop></linearGradient><clipPath id="clip-path"><rect id="Rectangle_373" data-name="Rectangle 373" width="143" height="142" rx="71" transform="translate(0.281 -17)" fill="#81d6ff"></rect></clipPath></defs><g id="Group_798" data-name="Group 798" transform="matrix(0.961, 0.276, -0.276, 0.961, -277.361, -2235.388)"><rect id="Rectangle_375" data-name="Rectangle 375" width="704" height="292" rx="33" transform="translate(973 2095)" fill="#f0faff" opacity="0.1"></rect><path id="Path_849" data-name="Path 849" d="M25,0H604a25,25,0,0,1,25,25V387a25,25,0,0,1-25,25H25A25,25,0,0,1,0,387V25A25,25,0,0,1,25,0Z" transform="translate(1013 2035)" fill="url(#linear-gradient)"></path><text id="My_Balance" data-name="My Balance" transform="translate(1061 2086)" fill="#fff" font-size="30" font-family="MonumentGrotesk-Regular, Monument Grotesk"><tspan x="0" y="32">My Balance</tspan></text><text id="Card_Holder" data-name="Card Holder" transform="translate(1061 2321)" fill="#fff" font-size="20" font-family="MonumentGrotesk-Regular, Monument Grotesk"><tspan x="0" y="21">Card Holder</tspan></text><text id="_12_342_324" data-name="$12,342,324" transform="translate(1061 2127)" fill="#fff" font-size="40" font-family="MonumentGrotesk-Bold, Monument Grotesk" font-weight="700"><tspan x="0" y="43">$12,342,324</tspan></text><text id="John_Doe" data-name="John Doe" transform="translate(1061 2349)" fill="#fff" font-size="30" font-family="MonumentGrotesk-Bold, Monument Grotesk" font-weight="700"><tspan x="0" y="32">John Doe</tspan></text><text id="_1234" data-name="1234" transform="translate(1485 2221)" fill="#fff" font-size="30" font-family="MonumentGrotesk-Bold, Monument Grotesk" font-weight="700"><tspan x="0" y="32">1234</tspan></text><g id="Group_749" data-name="Group 749" transform="translate(51 90)"><circle id="Ellipse_18" data-name="Ellipse 18" cx="5" cy="5" r="5" transform="translate(1227 2150)" fill="#fff"></circle><circle id="Ellipse_21" data-name="Ellipse 21" cx="5" cy="5" r="5" transform="translate(1253 2150)" fill="#fff"></circle><circle id="Ellipse_19" data-name="Ellipse 19" cx="5" cy="5" r="5" transform="translate(1240 2150)" fill="#fff"></circle><circle id="Ellipse_20" data-name="Ellipse 20" cx="5" cy="5" r="5" transform="translate(1266 2150)" fill="#fff"></circle></g><g id="Group_748" data-name="Group 748" transform="translate(51 90)"><circle id="Ellipse_22" data-name="Ellipse 22" cx="5" cy="5" r="5" transform="translate(1296 2150)" fill="#fff"></circle><circle id="Ellipse_23" data-name="Ellipse 23" cx="5" cy="5" r="5" transform="translate(1322 2150)" fill="#fff"></circle><circle id="Ellipse_24" data-name="Ellipse 24" cx="5" cy="5" r="5" transform="translate(1309 2150)" fill="#fff"></circle><circle id="Ellipse_25" data-name="Ellipse 25" cx="5" cy="5" r="5" transform="translate(1335 2150)" fill="#fff"></circle></g><g id="Group_747" data-name="Group 747" transform="translate(51 90)"><circle id="Ellipse_26" data-name="Ellipse 26" cx="5" cy="5" r="5" transform="translate(1365 2150)" fill="#fff"></circle><circle id="Ellipse_27" data-name="Ellipse 27" cx="5" cy="5" r="5" transform="translate(1391 2150)" fill="#fff"></circle><circle id="Ellipse_28" data-name="Ellipse 28" cx="5" cy="5" r="5" transform="translate(1378 2150)" fill="#fff"></circle><circle id="Ellipse_29" data-name="Ellipse 29" cx="5" cy="5" r="5" transform="translate(1404 2150)" fill="#fff"></circle></g><g id="Group_750" data-name="Group 750" transform="translate(45 101)"><circle id="Ellipse_30" data-name="Ellipse 30" cx="37" cy="37" r="37" transform="translate(1382 1989)" fill="#fff" opacity="0.63"></circle><circle id="Ellipse_31" data-name="Ellipse 31" cx="37" cy="37" r="37" transform="translate(1430 1989)" fill="#fff" opacity="0.63"></circle></g><g id="Group_751" data-name="Group 751" transform="translate(78.197 23.04)"><g id="Mask_Group_31" data-name="Mask Group 31" transform="translate(1389.521 2284.96)" clip-path="url(#clip-path)"><g id="Rectangle_374" data-name="Rectangle 374" transform="translate(-14.719 -24)" fill="#fff" stroke="#707070" stroke-width="1"><rect width="141" height="166" stroke="none"></rect><rect x="0.5" y="0.5" width="140" height="165" fill="none"></rect></g><path id="Path_848" data-name="Path 848" d="M53.841,26.026c25.733,0,39.347,4.141,39.347,41.354v76.763c0,37.213-20.861,67.38-46.594,67.38S0,181.356,0,144.143V67.38C0,30.167,28.108,26.026,53.841,26.026Z" transform="translate(244.805 38.618) rotate(90)" fill="#81d6ff"></path></g></g><text id="Valid_Thru" data-name="Valid Thru" transform="translate(1243 2321)" fill="#fff" font-size="20" font-family="MonumentGrotesk-Regular, Monument Grotesk"><tspan x="0" y="21">Valid Thru</tspan></text><text id="_03_21" data-name="03/21" transform="translate(1243 2349)" fill="#fff" font-size="30" font-family="MonumentGrotesk-Bold, Monument Grotesk" font-weight="700"><tspan x="0" y="32">03/21</tspan></text></g></svg>