<svg xmlns="http://www.w3.org/2000/svg" width="211.894" height="31.004" viewBox="0 0 211.894 31.004"><path id="logoprimary" d="M22.857,24.58H18.611V0h4.246Zm-6.355-19a2.232,2.232,0,1,1-2.232-2.2A2.218,2.218,0,0,1,16.5,5.578ZM8.287,15.424a2.7,2.7,0,0,0,2.9-2.832,2.8,2.8,0,0,0-3-2.9,2.727,2.727,0,0,0-2.8,2.966A2.6,2.6,0,0,0,8.287,15.424ZM4.5,26.009c0,1.146,1.3,1.956,3.482,1.956,2.971,0,4.644-.944,4.644-2.192,0-.978-.785-1.349-2.39-1.416l-3.927-.2C5.078,24.728,4.5,25.267,4.5,26.009ZM1.219,20.582c0-1.248.922-2.46,2.663-3.338A5.06,5.06,0,0,1,1.39,12.626c0-3.607,2.731-6.134,6.795-6.134a7.138,7.138,0,0,1,4.6,1.606,6.229,6.229,0,0,1,1.868,2.675,6.609,6.609,0,0,1,.324,2.191c0,3.4-2.527,5.63-6.692,5.63a8.173,8.173,0,0,1-1.947-.2c-.785.3-1.161.708-1.161,1.18,0,1,1.187,1.081,3.434,1.227h0c.393.025.818.053,1.275.088,4.61.337,6.556,1.214,6.556,4.585,0,3.472-2.9,5.461-8.4,5.461-5.019,0-7.58-1.551-7.58-4.416,0-1.652.99-2.562,3.106-3.236C1.971,22.5,1.219,21.8,1.219,20.582Zm31.672.753c2.295,0,3.39-1.86,3.39-5.612s-1.1-5.579-3.39-5.579c-2.26,0-3.39,1.826-3.39,5.579S30.631,21.335,32.891,21.335Zm0-14.81c4.795,0,7.671,3.382,7.671,9.2s-2.911,9.2-7.671,9.2-7.671-3.415-7.671-9.2C25.22,9.907,28.1,6.525,32.891,6.525Zm21.165,9.2c0,3.685-1.438,5.68-3.8,5.68a4.489,4.489,0,0,1-3.185-1.521V11.462a4.714,4.714,0,0,1,3.219-1.488C52.583,9.974,54.056,12,54.056,15.722ZM42.925,0V20.456c0,.845-.069,2.232-.206,4.124h3.288l.446-1.893a6.261,6.261,0,0,0,4.863,2.231c4.075,0,6.986-3.685,6.986-9.2,0-5.713-2.98-9.2-6.849-9.2A5.293,5.293,0,0,0,47.1,8.555V0ZM63.747,19.712a1.738,1.738,0,0,0,1.918,1.894A5.7,5.7,0,0,0,69.6,19.745V15.959C65.631,16.5,63.747,17.615,63.747,19.712Zm5.959,3.313a8.945,8.945,0,0,1-5.343,1.758c-3.014,0-4.794-1.792-4.794-4.734,0-3.956,3.322-6.052,10.171-6.9V11.766c0-1.285-.89-2.029-2.534-2.029a4.68,4.68,0,0,0-3.938,2.029L60.391,9.974a7.666,7.666,0,0,1,6.885-3.449c4.212,0,6.575,2,6.575,5.241V22.18a15.02,15.02,0,0,0,.274,2.4H70.083ZM81.692,24.58H77.446V0h4.246Zm6.15-4.733c1.781,2.232,3.39,3.348,5.377,3.348,2.946,0,4.692-2.6,4.692-7.439s-1.746-7.438-4.692-7.438c-1.986,0-3.6,1.082-5.377,3.313ZM85.718,6.9h1.576l.548,2.3h.171A7.384,7.384,0,0,1,93.39,6.559c3.9,0,6.644,3.347,6.644,9.163s-2.74,9.162-6.644,9.162a7.336,7.336,0,0,1-5.377-2.6h-.171V31H85.718Zm17.809,13.186c0-3.009,2.774-4.125,8.8-5.443v5.443c-2.089,2.1-3.87,3.145-5.822,3.145A2.828,2.828,0,0,1,103.527,20.083Zm2.706,4.834a8.8,8.8,0,0,0,6.1-2.671,14.731,14.731,0,0,0,.343,2.333h2.089a15.5,15.5,0,0,1-.308-2.367V11.225c0-2.637-2.363-4.633-5.754-4.633a6.623,6.623,0,0,0-6.371,3.619l1.644.947a4.863,4.863,0,0,1,4.452-2.841c2.466,0,3.939,1.184,3.939,2.909v1.724c-7.5,1.318-10.96,3.145-10.96,7.235A4.546,4.546,0,0,0,106.233,24.918Zm10.1-18.02h2.124l5.274,15.045L128.971,6.9h2.021l-6.748,19.069c-1.233,3.515-2.671,4.969-5.754,4.969a12.471,12.471,0,0,1-1.849-.135v-1.69a8.323,8.323,0,0,0,1.507.135c2.568,0,3.732-1.42,4.417-4.768Zm18.734,0h-1.953V24.58h2.055V11.7c1.781-2.2,3.528-3.279,5.171-3.279,2.534,0,3.082,1.488,3.082,4.6V24.58h2.055V11.7c1.747-2.2,3.528-3.279,5.171-3.279,2.535,0,3.083,1.488,3.083,4.6V24.58h2.02V12.273q0-5.68-4.52-5.68c-1.917,0-3.8,1.014-5.754,3.043h-.238a4.354,4.354,0,0,0-4.281-3.043c-1.884,0-3.871,1.014-5.754,3.043h-.136Zm30.685,1.386c-2.809,0-4.8,2.1-5.137,5.883h9.83C170.342,10.346,168.561,8.283,165.753,8.283Zm6.781,12.036c-1.576,3.178-3.6,4.565-6.748,4.565-4.451,0-7.295-3.483-7.295-9.028,0-5.848,2.945-9.3,7.226-9.3,4.316,0,6.713,2.942,6.713,8.554v.575H160.615c.035,4.9,1.919,7.506,5.309,7.506,2.294,0,3.768-1.115,5.034-3.719ZM177.328,6.9H175.2V24.58h2.123V11.7c1.919-2.2,3.8-3.279,5.582-3.279,2.74,0,3.357,1.488,3.357,4.6V24.58h2.09V12.273q0-5.68-4.829-5.68c-1.988,0-4.076,1.014-6.2,3.077Zm19.76,16.364a8.26,8.26,0,0,0,1.884-.339v1.691a9.7,9.7,0,0,1-2.4.338c-2.465,0-3.527-1.217-3.527-3.787V8.622h-2.67V6.9h2.67V1.657h2.09V6.9h3.733V8.622h-3.733V21.267C195.135,22.619,195.753,23.261,197.087,23.261Zm13.118-3.279c0,1.859-1.473,3.246-3.7,3.246-2.09,0-3.871-1.048-5.411-3.078L199.519,21.4a7.943,7.943,0,0,0,6.748,3.482c3.7,0,6.1-2.129,6.1-5.071,0-2.807-1.814-3.889-5.377-5.208q-.43-.161-.825-.3c-2.474-.908-3.9-1.432-3.9-3.143a2.9,2.9,0,0,1,3.219-2.907,5.743,5.743,0,0,1,4.829,2.637L211.814,9.8a7.289,7.289,0,0,0-5.96-3.246c-3.561,0-5.787,1.995-5.787,4.7s1.884,3.72,5.514,5.038l.526.192C208.726,17.442,210.206,17.981,210.206,19.982Z" transform="translate(-0.469)" fill="#fff" fill-rule="evenodd"></path></svg>