<svg xmlns="http://www.w3.org/2000/svg" xmlns:xlink="http://www.w3.org/1999/xlink" width="101" height="65" viewBox="0 0 101 65"><defs><clipPath id="clip-path"><rect id="Rectangle_77637" data-name="Rectangle 77637" width="38.073" height="6.486" fill="#22415e"></rect></clipPath><clipPath id="clip-path-2"><rect id="Rectangle_77639" data-name="Rectangle 77639" width="50" height="32" rx="9" fill="none" stroke="#ee01f7" stroke-width="1"></rect></clipPath></defs><g id="Group_804" data-name="Group 804" transform="translate(-10290 950)"><g id="Group_81183" data-name="Group 81183" transform="translate(10341 -917)"><path id="Rectangle_77638" data-name="Rectangle 77638" d="M3,0H47a3,3,0,0,1,3,3V29a3,3,0,0,1-3,3H3a3,3,0,0,1-3-3V3A3,3,0,0,1,3,0Z" transform="translate(0)" fill="#fff"></path><g id="Group_81181" data-name="Group 81181" transform="translate(5.963 12.757)"><g id="Group_81180" data-name="Group 81180" clip-path="url(#clip-path)"><path id="Path_94405" data-name="Path 94405" d="M0,4.171c.647,0,1.295-.018,1.941,0a3.239,3.239,0,0,1,1.792.583A2.765,2.765,0,0,1,4.915,6.713,2.94,2.94,0,0,1,4.4,8.889a2.9,2.9,0,0,1-2.163,1.256c-.583.058-1.166.015-1.75.024-.159,0-.323,0-.485-.006V4.171m1.172,3V9.016c0,.091.027.121.118.119.218,0,.436,0,.653-.023a1.794,1.794,0,0,0,1.171-.493,1.982,1.982,0,0,0,.487-2.089A1.745,1.745,0,0,0,2.231,5.273a4.234,4.234,0,0,0-.906-.068c-.148,0-.148,0-.148.144V7.167" transform="translate(0 -4.033)" fill="#22415e"></path><path id="Path_94406" data-name="Path 94406" d="M370.508,0a3.159,3.159,0,0,1,.875.212c.094.04.187.084.281.124a.118.118,0,0,1,.077.124V1.665c0,.028.011.066-.025.077s-.045-.022-.064-.04a2.112,2.112,0,0,0-.915-.55A1.926,1.926,0,0,0,368.4,2.532a2.121,2.121,0,0,0,.375,1.962,1.816,1.816,0,0,0,1.219.665,1.836,1.836,0,0,0,1.029-.122,2.28,2.28,0,0,0,.607-.424c.024-.023.049-.068.087-.05s.022.065.022.1V5.808a.153.153,0,0,1-.1.159,3.249,3.249,0,0,1-3.618-.575,2.994,2.994,0,0,1-.928-1.968,3.037,3.037,0,0,1,.933-2.517,3.118,3.118,0,0,1,1.95-.893A.415.415,0,0,0,370.052,0Z" transform="translate(-355.499)" fill="#22415e"></path><path id="Path_94407" data-name="Path 94407" d="M530.367,7a3.187,3.187,0,1,1-3.146-3.19A3.187,3.187,0,0,1,530.367,7" transform="translate(-507.463 -3.687)" fill="#22415e"></path><path id="Path_94408" data-name="Path 94408" d="M1045.64,7.2V4.356c0-.156,0-.156.159-.156.578,0,1.156-.007,1.734,0a2.431,2.431,0,0,1,1.206.309,1.543,1.543,0,0,1,.774,1.293,2.144,2.144,0,0,1-.045.668,1.529,1.529,0,0,1-1.133,1.166c-.167.05-.167.049-.065.185l1.692,2.256.018.024c.014.024.047.047.032.078s-.053.02-.081.021h-.505c-.234,0-.469-.005-.7,0a.231.231,0,0,1-.224-.122c-.481-.721-.968-1.439-1.452-2.159-.009-.014-.02-.027-.028-.041-.03-.053-.069-.091-.135-.074s-.046.08-.046.124V10c0,.232.008.2-.2.2h-.862c-.13,0-.133,0-.133-.134V7.2m1.2-1.145v.791c0,.06.01.1.085.1a3.592,3.592,0,0,0,.593-.025.835.835,0,0,0,.772-.8.807.807,0,0,0-.648-.9,3.25,3.25,0,0,0-.689-.047c-.088,0-.115.031-.114.116,0,.257,0,.514,0,.771" transform="translate(-1012.652 -4.065)" fill="#22415e"></path><path id="Path_94409" data-name="Path 94409" d="M915.776,7.264V4.437c0-.17,0-.17.169-.17h3.032c.149,0,.15,0,.15.147v.751c0,.137,0,.139-.137.139h-1.863c-.145,0-.145,0-.145.139V6.472c0,.127,0,.131.136.131H918.9c.14,0,.145.006.145.144,0,.26,0,.521,0,.781,0,.1-.036.126-.128.125h-1.794c-.144,0-.145,0-.145.142V9.111c0,.1.033.124.126.124.628,0,1.255,0,1.883,0,.135,0,.137,0,.138.139,0,.257,0,.514,0,.771,0,.1-.032.129-.131.129-1.024,0-2.048,0-3.072,0-.147,0-.15,0-.15-.149V7.268" transform="translate(-886.887 -4.132)" fill="#22415e"></path><path id="Path_94410" data-name="Path 94410" d="M226.792,1.081a2.66,2.66,0,0,1,1.681.607c.063.053.07.088.019.153q-.257.326-.505.66c-.05.067-.083.063-.137,0a1.141,1.141,0,0,0-.669-.4,1.057,1.057,0,0,0-.837.182.535.535,0,0,0,.024.882,3.6,3.6,0,0,0,.689.318,6.673,6.673,0,0,1,.858.384,1.553,1.553,0,0,1,.839,1.577,1.9,1.9,0,0,1-.593,1.34,2,2,0,0,1-1.125.517,2.467,2.467,0,0,1-1.521-.242,2.6,2.6,0,0,1-.894-.824.077.077,0,0,1,.015-.119c.215-.2.43-.409.642-.618.064-.063.092-.042.13.024a1.338,1.338,0,0,0,.821.655,1.128,1.128,0,0,0,.862-.059.773.773,0,0,0,.431-.716.7.7,0,0,0-.44-.662,8.139,8.139,0,0,0-.818-.328,4.087,4.087,0,0,1-.663-.311,1.412,1.412,0,0,1-.7-1.467A1.75,1.75,0,0,1,226.475,1.1a1.971,1.971,0,0,1,.318-.02" transform="translate(-217.517 -1.047)" fill="#22415e"></path><path id="Path_94411" data-name="Path 94411" d="M720.044,8.142a.2.2,0,0,0,.066-.111q.75-1.856,1.5-3.715a.188.188,0,0,1,.212-.139c.337.007.674,0,1.011,0,.126,0,.132.008.085.119l-1.45,3.434c-.349.826-.7,1.651-1.044,2.479a.175.175,0,0,1-.2.13,3.2,3.2,0,0,0-.387,0,.15.15,0,0,1-.17-.111q-.552-1.344-1.113-2.686l-1.321-3.188c-.073-.176-.073-.176.117-.176h1a.146.146,0,0,1,.159.106q.742,1.88,1.494,3.758c.012.03.025.059.042.1" transform="translate(-694.561 -4.044)" fill="#22415e"></path><path id="Path_94412" data-name="Path 94412" d="M174.028,7.261v2.846c0,.159,0,.159-.159.159-.307,0-.614,0-.921,0-.1,0-.129-.037-.129-.132q0-2.871,0-5.742c0-.122.01-.131.128-.131h.941c.13,0,.137.007.137.142V7.259" transform="translate(-167.369 -4.127)" fill="#22415e"></path><path id="Path_94413" data-name="Path 94413" d="M1178.08,3.379a.457.457,0,0,1-.47.467.471.471,0,0,1,.007-.942.46.46,0,0,1,.463.474m-.5.133c-.024.015-.019.033-.019.048,0,.053-.009.091-.075.091s-.076-.047-.076-.1V3.3c0-.212.02-.23.233-.2a.162.162,0,0,1,.145.1.159.159,0,0,1-.036.182c-.049.041-.033.069,0,.106s.042.053.063.076c.037.047.066.041.1-.008a.371.371,0,0,0-.074-.468.35.35,0,0,0-.455,0,.378.378,0,0,0-.059.486.348.348,0,0,0,.438.118c.018-.009.047-.013.036-.053-.125.042-.155-.077-.218-.137" transform="translate(-1140.005 -2.813)" fill="#22415e"></path></g></g></g><g id="Group_81193" data-name="Group 81193" transform="translate(-12131.066 9978.145)"><g id="Group_81185" data-name="Group 81185" transform="translate(22472.066 -10928.145)"><rect id="Rectangle_77292" data-name="Rectangle 77292" width="50" height="32" rx="3" transform="translate(0)" fill="#fff"></rect><g id="Group_81182" data-name="Group 81182" transform="translate(11.287 7.117)"><path id="Path_75331" data-name="Path 75331" d="M2749.628,203.565a8.186,8.186,0,0,1-5.446,2.082,8.894,8.894,0,0,1,0-17.767,8.2,8.2,0,0,1,5.463,2.095,8.869,8.869,0,0,0-.017,13.589Z" transform="translate(-2735.712 -187.88)" fill="#22415e"></path><path id="Path_75332" data-name="Path 75332" d="M2767.927,199.743a9.024,9.024,0,0,1-3.025,6.8,8.87,8.87,0,0,1,.017-13.589A9.052,9.052,0,0,1,2767.927,199.743Z" transform="translate(-2751.384 -190.856)" fill="#22415e" opacity="0.668"></path><path id="Path_75333" data-name="Path 75333" d="M2783.369,196.987a8.66,8.66,0,0,1-8.562,8.751,8.441,8.441,0,0,1-5.407-1.963,9.159,9.159,0,0,0,.018-13.589,8.438,8.438,0,0,1,5.393-1.946A8.657,8.657,0,0,1,2783.369,196.987Z" transform="translate(-2755.943 -188.091)" fill="#22415e"></path></g></g></g><g id="Group_81192" data-name="Group 81192" transform="translate(-12290.754 10011.145)"><g id="Group_81184" data-name="Group 81184" transform="translate(22580.754 -10928.145)"><rect id="Rectangle_77293" data-name="Rectangle 77293" width="50" height="32" rx="3" transform="translate(0 0)" fill="#fff"></rect><g id="Group_74355" data-name="Group 74355" transform="translate(10.914 11.411)"><path id="Path_75313" data-name="Path 75313" d="M106,.406c-.135.629-.267,1.258-.4,1.887a4.352,4.352,0,0,0-2.205-.4,1.258,1.258,0,0,0-.894.429.529.529,0,0,0-.024.606,1.784,1.784,0,0,0,.607.5,8.066,8.066,0,0,1,1.856,1.189,2.1,2.1,0,0,1,.626,1.278,2.774,2.774,0,0,1-.45,1.828,3.225,3.225,0,0,1-1.64,1.189,6.275,6.275,0,0,1-2.966.2,5.7,5.7,0,0,1-1.428-.383l.414-1.949a6.612,6.612,0,0,0,.95.384,4.6,4.6,0,0,0,1.562.168,1.655,1.655,0,0,0,.954-.351.681.681,0,0,0,.2-.709,1.013,1.013,0,0,0-.4-.475c-.4-.28-.869-.463-1.281-.715a3.527,3.527,0,0,1-1.094-.953,1.987,1.987,0,0,1-.368-1.172,2.6,2.6,0,0,1,.633-1.694A3.631,3.631,0,0,1,102.607.153,5.946,5.946,0,0,1,106,.406Z" transform="translate(-85.452 -0.015)" fill="#22415e"></path><path id="Path_75314" data-name="Path 75314" d="M.055,1.176H3.884a1.075,1.075,0,0,1,.649.188,1.132,1.132,0,0,1,.453.75q.477,2.548.951,5.1Q7.127,4.193,8.305,1.174H10.7L7.223,9.547c-.072.172-.139.344-.219.513-.8-.007-1.6,0-2.4,0q-.913-3.55-1.82-7.1a1.138,1.138,0,0,0-.294-.6,2.39,2.39,0,0,0-.6-.34A11.142,11.142,0,0,0,0,1.436C.018,1.349.036,1.262.055,1.176Z" transform="translate(0 -1.016)" fill="#22415e"></path><path id="Path_75315" data-name="Path 75315" d="M73.058,1.175c.76,0,1.52,0,2.279,0q-.937,4.441-1.883,8.882H71.179Q72.113,5.613,73.058,1.175Z" transform="translate(-61.387 -1.013)" fill="#22415e"></path><path id="Path_75316" data-name="Path 75316" d="M151.758,1.176c-.665,0-1.331,0-2,0a1.034,1.034,0,0,0-.918.646c-1.138,2.737-2.281,5.5-3.417,8.232h2.394q.236-.662.475-1.325h2.918q.135.662.274,1.324h2.108Q152.68,5.617,151.758,1.176Zm-2.806,5.733q.6-1.661,1.194-3.322.345,1.66.688,3.322Z" transform="translate(-125.422 -1.015)" fill="#22415e"></path></g></g></g><g id="Group_81194" data-name="Group 81194" transform="translate(-12073.379 9978.145)"><g id="Group_81186" data-name="Group 81186" transform="translate(22363.379 -10928.145)"><rect id="Rectangle_77291" data-name="Rectangle 77291" width="50" height="32" rx="3" transform="translate(0 0)" fill="#fff"></rect><g id="Mask_Group_45417" data-name="Mask Group 45417" transform="translate(0 0)" clip-path="url(#clip-path-2)"><g id="Group_73900" data-name="Group 73900" transform="translate(5.588 11.032)"><path id="Path_75317" data-name="Path 75317" d="M3.62.021c-.533,0-1.067-.006-1.6,0C1.351,1.465.667,2.9,0,4.349c.444.011.888,0,1.332.012.152-.286.269-.583.4-.877h2.13c.135.289.265.58.4.87.461,0,.921,0,1.382,0C4.974,2.9,4.286,1.467,3.62.021ZM2.163,2.52c.2-.474.409-.947.625-1.414.256.451.431.946.652,1.414q-.64.007-1.28,0Z" transform="translate(0 -0.015)" fill="#22415e"></path><path id="Path_75318" data-name="Path 75318" d="M27.089,0h1.926c.357.9.677,1.813,1.056,2.7.371-.894.684-1.812,1.057-2.706.636.01,1.273,0,1.909.006,0,1.443,0,2.887,0,4.33-.4.006-.806,0-1.209,0-.019-1.025.042-2.06-.037-3.082-.368,1.034-.8,2.047-1.18,3.077-.358,0-.717.018-1.075,0-.083-.06-.1-.193-.145-.281-.356-.935-.728-1.865-1.084-2.8-.018,1.028-.006,2.057-.009,3.084-.4,0-.806,0-1.209,0Q27.088,2.172,27.089,0Z" transform="translate(-21.199)" fill="#22415e"></path><path id="Path_75319" data-name="Path 75319" d="M58.744.02q1.949,0,3.9,0c0,.325,0,.65,0,.974-.887.025-1.776,0-2.663.011v.69c.864,0,1.727,0,2.591,0,0,.326,0,.653,0,.978-.864.01-1.728,0-2.593,0,0,.23,0,.461,0,.691.887.008,1.775-.012,2.661.011q0,.485,0,.972-1.951.007-3.9,0C58.744,2.908,58.741,1.465,58.744.02Z" transform="translate(-45.969 -0.015)" fill="#22415e"></path><path id="Path_75320" data-name="Path 75320" d="M83.55,2.866c-.048-.051-.048-.082,0-.094a2.35,2.35,0,0,0,.659-.328,1.38,1.38,0,0,0,.488-1.018A1.374,1.374,0,0,0,84.246.393,1.78,1.78,0,0,0,83.1.006c-.9-.006-1.8,0-2.706-.006-.02,1.446,0,2.893-.008,4.338.409,0,.819,0,1.229,0,0-.506,0-1.011,0-1.516h.435c.471.5.935,1.008,1.4,1.513q.764.009,1.529,0C84.5,3.851,84.025,3.357,83.55,2.866Zm-.2-1.154a.757.757,0,0,1-.572.159c-.388,0-.776.006-1.165-.013,0-.289,0-.578.005-.868h1.16a.885.885,0,0,1,.493.095.425.425,0,0,1,.187.3.412.412,0,0,1-.107.331Z" transform="translate(-62.911)" fill="#22415e"></path><path id="Path_75321" data-name="Path 75321" d="M103.154.02c.413,0,.826,0,1.238,0V4.35q-.619.008-1.238,0Q103.154,2.184,103.154.02Z" transform="translate(-80.731 -0.015)" fill="#22415e"></path><path id="Path_75322" data-name="Path 75322" d="M113.986.02c.542-.011,1.084,0,1.626,0q0,.5,0,1a13.906,13.906,0,0,0-1.8.068.969.969,0,0,0-.712.775,1.271,1.271,0,0,0,.4,1.3c.4.293.988.178,1.468.205a10.064,10.064,0,0,1-.458.982,3.081,3.081,0,0,1-1.709-.3,1.9,1.9,0,0,1-.935-1.5,2.391,2.391,0,0,1,.384-1.718,2.2,2.2,0,0,1,1.74-.811Z" transform="translate(-87.525 -0.013)" fill="#22415e"></path><path id="Path_75323" data-name="Path 75323" d="M130.346.007c-.525.015-1.053-.016-1.578.013-.694,1.427-1.357,2.888-2.034,4.322.451,0,.9,0,1.354,0,.125-.289.253-.577.38-.864q1.07-.006,2.141,0,.193.435.388.868c.463,0,.926,0,1.389,0C131.7,2.9,131.037,1.447,130.346.007Zm-1.44,2.506a13.4,13.4,0,0,1,.648-1.417l.63,1.418c-.426,0-.851,0-1.277,0Z" transform="translate(-99.185 -0.007)" fill="#22415e"></path><path id="Path_75324" data-name="Path 75324" d="M27.088,27.293c1.29-.009,2.588,0,3.879,0,0,.328,0,.656,0,.985H28.3c0,.23,0,.459,0,.688H30.9c0,.328,0,.657,0,.986H28.305l0,.693c.889,0,1.776,0,2.664,0q0,.492,0,.982c-1.3,0-2.591,0-3.886,0C27.086,30.189,27.072,28.736,27.088,27.293Z" transform="translate(-21.191 -21.7)" fill="#22415e"></path><path id="Path_75325" data-name="Path 75325" d="M45.872,27.295c.537,0,1.075-.006,1.613,0,.387.44.789.869,1.187,1.3.356-.383.709-.769,1.059-1.156.063-.057.125-.157.222-.147.493-.008.988,0,1.481,0-.667.7-1.328,1.407-1.993,2.111.674.755,1.381,1.483,2.072,2.225-.537,0-1.074,0-1.611,0-.411-.462-.83-.918-1.25-1.373q-.629.684-1.253,1.37-.78.008-1.561,0c.678-.728,1.363-1.45,2.042-2.176C47.244,28.709,46.533,28.018,45.872,27.295Z" transform="translate(-35.872 -21.7)" fill="#22415e"></path><path id="Path_75326" data-name="Path 75326" d="M76.51,27.666a1.808,1.808,0,0,0-1.25-.388c-.875.007-1.751-.01-2.622.007-.015,1.441,0,2.892-.005,4.335h1.225c0-.474,0-.947,0-1.421.546,0,1.093.011,1.638-.006a1.562,1.562,0,0,0,1.292-.737,1.465,1.465,0,0,0-.28-1.788ZM75.324,29.2c-.487.024-.98.006-1.468.006.007-.311-.01-.624.009-.935.356-.02.716,0,1.074-.01a.951.951,0,0,1,.642.127.454.454,0,0,1,.141.482.491.491,0,0,1-.4.331Z" transform="translate(-56.844 -21.687)" fill="#22415e"></path><path id="Path_75327" data-name="Path 75327" d="M98.09,30.078a1.95,1.95,0,0,0,.784-.385A1.354,1.354,0,0,0,98.9,27.7a1.77,1.77,0,0,0-1.223-.41H95.01c-.017,1.446-.018,2.9,0,4.343q.61,0,1.221,0c.02-.507,0-1.014.011-1.522h.435c.473.5.936,1.013,1.405,1.518q.761.006,1.522,0C99.1,31.112,98.6,30.589,98.09,30.078Zm-.035-1.227a.459.459,0,0,1-.463.294c-.451.013-.9,0-1.352,0,0-.287-.013-.575,0-.862.367-.018.735,0,1.1-.009a1.014,1.014,0,0,1,.526.086.4.4,0,0,1,.181.489Z" transform="translate(-74.346 -21.701)" fill="#22415e"></path><path id="Path_75328" data-name="Path 75328" d="M117.837,27.3c1.292-.02,2.589,0,3.881-.01q0,.493,0,.985c-.887,0-1.775,0-2.662,0l0,.684c.869.009,1.74,0,2.608.007,0,.326,0,.652,0,.978-.869.01-1.741,0-2.611.006v.69c.887.005,1.774,0,2.662,0q0,.492,0,.985c-1.3,0-2.591,0-3.886,0C117.836,30.189,117.824,28.739,117.837,27.3Z" transform="translate(-92.216 -21.699)" fill="#22415e"></path><path id="Path_75329" data-name="Path 75329" d="M139.787,27.3c.834,0,1.672,0,2.508,0q-.219.5-.473.982h-1.957a.5.5,0,0,0-.446.157.321.321,0,0,0-.037.308.351.351,0,0,0,.245.206c.532.059,1.081-.017,1.615.039a1.3,1.3,0,0,1,.968.542,1.327,1.327,0,0,1-.018,1.44,1.508,1.508,0,0,1-1.358.659c-.852,0-1.7,0-2.555,0q-.005-.492,0-.985c.822,0,1.646,0,2.468,0a.385.385,0,0,0,.39-.21.323.323,0,0,0-.024-.316.365.365,0,0,0-.29-.16c-.477-.027-.959.016-1.437-.019a1.36,1.36,0,0,1-1.076-.594,1.346,1.346,0,0,1,.239-1.656A1.835,1.835,0,0,1,139.787,27.3Z" transform="translate(-108.102 -21.703)" fill="#22415e"></path><path id="Path_75330" data-name="Path 75330" d="M160.567,27.3c.842,0,1.685,0,2.526,0-.136.339-.3.662-.471.987-.6-.009-1.209,0-1.811-.006-.2.009-.41-.028-.565.127a.326.326,0,0,0-.065.309.351.351,0,0,0,.232.227c.575.086,1.19-.034,1.765.07a1.206,1.206,0,0,1,.885.61,1.4,1.4,0,0,1-.292,1.618,1.758,1.758,0,0,1-1.156.393c-.845,0-1.691,0-2.535,0,0-.328,0-.656,0-.982.817,0,1.637,0,2.455,0a.415.415,0,0,0,.4-.2.324.324,0,0,0-.011-.306.362.362,0,0,0-.267-.175c-.522-.042-1.057.024-1.578-.036a1.332,1.332,0,0,1-.98-.594,1.349,1.349,0,0,1,.239-1.633A1.8,1.8,0,0,1,160.567,27.3Z" transform="translate(-124.378 -21.703)" fill="#22415e"></path></g></g></g></g></g></svg>