<svg xmlns="http://www.w3.org/2000/svg" width="209.642" height="50.42" viewBox="0 0 209.642 50.42"><g id="Paysafe-UI-KIT-logos" transform="translate(-92.358 -519)"><g id="Logos-white" transform="translate(92.358 519)"><g id="b2b-logo-full-colour-white" transform="translate(0 0)"><path id="Fill-1" d="M246.479,20.308a6,6,0,1,1-6-6.005,6.005,6.005,0,0,1,6,6.005" transform="translate(-36.837 -2.247)" fill="#7887e6" fill-rule="evenodd"></path><path id="Fill-3" d="M246.479,42.6a6,6,0,1,1-6-6,6.005,6.005,0,0,1,6,6" transform="translate(-36.837 -5.75)" fill="#ff5073" fill-rule="evenodd"></path><path id="Fill-5" d="M14.245,20.706H9.46V9.288h4.786c3.405,0,5.307,2.362,5.307,5.767C19.553,18.691,17.418,20.706,14.245,20.706Zm1.04-18.341H0v39.8H9.46V27.63h5.826c7.67,0,13.44-4.786,13.44-12.921C28.726,7.672,24.4,2.365,15.286,2.365ZM78.469,12.748,72.122,30.326,64.836,12.748H55.388L67.831,40.782,63.949,50.42h8.782L87.639,12.748Zm68.172-1.212v1.212h-4.9v6.287h4.9V42.166h9.171V19.035h6.346V12.748h-6.346V11.191c0-2.6,1.038-4.442,3.866-4.442a10.261,10.261,0,0,1,2.711.4V.577A16.479,16.479,0,0,0,158,0C150.563,0,146.641,4.557,146.641,11.536Zm-16.776,24.17a6.332,6.332,0,0,1-3.634,1.154c-2.307,0-3.865-1.327-3.865-3.461,0-2.423,1.909-4.792,7.5-3.865Zm-1.789-23.65A24.742,24.742,0,0,0,115.1,15.575l2.538,5.249a22.592,22.592,0,0,1,8.191-2.077c2.134,0,4.037.75,4.037,3v1.961c-12.721-.9-16.378,4.692-16.378,9.86,0,5.051,4.276,9.291,9.9,9.291a12.8,12.8,0,0,0,6.473-2v1.3h9.23V21.689C139.095,15.056,134.884,12.056,128.077,12.056Zm-82.14,23.65A6.332,6.332,0,0,1,42.3,36.86c-2.307,0-3.865-1.327-3.865-3.461,0-2.423,1.909-4.792,7.5-3.865ZM43.8,12.056a24.743,24.743,0,0,0-12.979,3.519l2.538,5.249a22.591,22.591,0,0,1,8.191-2.077c2.134,0,4.038.75,4.038,3v1.961c-12.722-.9-16.378,4.692-16.378,9.86,0,5.051,4.276,9.291,9.9,9.291a12.8,12.8,0,0,0,6.474-2v1.3h9.229V21.689C54.822,15.056,50.611,12.056,43.8,12.056Zm53.33,9c0-1.384,1.384-2.25,3.691-2.25a17.919,17.919,0,0,1,6.807,1.673l2.6-6.057a23.213,23.213,0,0,0-9.864-2.365c-6.865,0-12.4,3.115-12.4,9.344,0,9.806,13.843,8.018,13.843,12.344,0,1.615-1.615,2.423-4.326,2.423a17.165,17.165,0,0,1-7.5-1.961l-2.943,5.942a24.317,24.317,0,0,0,11.248,2.711c6.692,0,12.46-3.461,12.46-9.806C110.747,23.362,97.134,24.977,97.134,21.055Zm80.28-2.538c2.538,0,4.558,2.019,4.9,5.941h-9.806C172.857,20.535,174.876,18.517,177.414,18.517ZM191.638,29.3v-2.3c0-8.626-6.033-14.949-14.224-14.949s-14.536,6.518-14.536,15.575c0,9.286,6,15.228,15.574,15.228,2.669,0,7.949-.482,12.02-3.3L187.9,33.84a16.48,16.48,0,0,1-8.064,2.27c-.217,0-.432-.008-.643-.02l-.143-.009c-.2-.014-.4-.034-.594-.06l-.131-.02q-.238-.036-.466-.083c-.055-.011-.11-.021-.163-.033-.158-.036-.312-.078-.464-.123-.083-.024-.164-.049-.244-.076-.11-.036-.217-.076-.324-.117-.121-.047-.24-.1-.355-.149l-.1-.048c-.187-.09-.367-.185-.539-.289l-.015-.009a5.9,5.9,0,0,1-1.032-.793l-.014-.013c-.126-.122-.244-.249-.358-.381-.044-.051-.088-.1-.13-.155-.066-.081-.129-.164-.19-.247-.1-.143-.2-.289-.3-.444l-.008-.013a8.854,8.854,0,0,1-1.112-3.722h19.127Z" transform="translate(0 0)" fill="#fff" fill-rule="evenodd"></path></g></g></g></svg>