<svg xmlns="http://www.w3.org/2000/svg" xmlns:xlink="http://www.w3.org/1999/xlink" id="Layer_1" x="0px" y="0px" width="834.3px" height="289.6px" viewBox="0 0 834.3 289.6" style="enable-background:new 0 0 834.3 289.6;" xml:space="preserve"> <style type="text/css"> .st0{fill:#FE84BA;} .st1{fill:#8FED4A;} .st2{fill:#163AF9;} .st3{fill:#16C1DF;} .st4{fill:#FE0037;} .st5{fill:#FE9A2F;} .st6{fill:#FEE83F;} .st7{fill:#FBF8EF;} .st8{fill:#FFFFFF;} .st9{fill:#101010;} </style> <g> <path class="st9" d="M114.8,210.1c-8.4-4.3-14.9-10.4-19.5-18.2c-4.6-7.9-7-17-7-27.3v-40.7c0-10.2,2.3-19.2,7-27 c4.6-7.8,11.1-13.8,19.5-18.1c8.4-4.3,18.1-6.4,29.1-6.4c11,0,20.7,2,29.1,6c8.4,4,14.9,9.7,19.5,17c4.6,7.3,7,15.8,7,25.5 c0,1.2-1,1.9-3,2.2l-31.8,2H164c-1.6,0-2.4-0.7-2.4-2.2c0-5.5-1.6-9.9-4.8-13.2c-3.2-3.3-7.5-4.9-12.9-4.9c-5.4,0-9.7,1.6-12.9,4.9 c-3.2,3.3-4.8,7.7-4.8,13.2v43.3c0,5.4,1.6,9.7,4.8,13c3.2,3.3,7.5,4.9,12.9,4.9c5.4,0,9.7-1.6,12.9-4.9c3.2-3.3,4.8-7.6,4.8-13 c0-0.8,0.3-1.4,0.8-1.8c0.5-0.4,1.3-0.5,2.2-0.4l31.8,1.6c2,0.1,3,0.8,3,2c0,9.7-2.3,18.2-7,25.6c-4.6,7.4-11.1,13.1-19.5,17.2 c-8.4,4.1-18.1,6.1-29.1,6.1C132.9,216.5,123.2,214.4,114.8,210.1z"></path> <path class="st9" d="M248,210.6c-8.5-4.5-15.1-10.8-19.8-18.9c-4.7-8.1-7.1-17.6-7.1-28.3v-37.9c0-10.5,2.3-19.7,7.1-27.8 c4.7-8.1,11.3-14.3,19.8-18.7c8.5-4.4,18.4-6.6,29.5-6.6c11.3,0,21.2,2.2,29.7,6.6c8.5,4.4,15.1,10.7,19.8,18.7 c4.7,8.1,7.1,17.3,7.1,27.8v37.9c0,10.7-2.4,20.2-7.1,28.3c-4.7,8.1-11.3,14.4-19.8,18.9c-8.5,4.5-18.4,6.7-29.7,6.7 C266.3,217.3,256.5,215.1,248,210.6z M291.1,179.4c3.4-3.7,5.1-8.6,5.1-14.8v-39.5c0-6.2-1.7-11.1-5.1-14.8 c-3.4-3.7-8-5.5-13.6-5.5c-5.5,0-10,1.8-13.4,5.5c-3.4,3.7-5.1,8.6-5.1,14.8v39.5c0,6.2,1.7,11.1,5.1,14.8 c3.4,3.7,7.9,5.5,13.4,5.5C283.1,184.9,287.7,183,291.1,179.4z"></path> <path class="st9" d="M355.5,214.1c-0.5-0.5-0.8-1.3-0.8-2.2v-135c0-0.9,0.3-1.7,0.8-2.2c0.5-0.5,1.3-0.8,2.2-0.8h31.8 c0.9,0,1.7,0.3,2.2,0.8c0.5,0.5,0.8,1.3,0.8,2.2v104.6c0,0.7,0.3,1,1,1h62.3c0.9,0,1.7,0.3,2.2,0.8c0.5,0.5,0.8,1.3,0.8,2.2v26.4 c0,0.9-0.3,1.7-0.8,2.2c-0.5,0.5-1.3,0.8-2.2,0.8h-98.1C356.7,214.9,356,214.6,355.5,214.1z"></path> <path class="st9" d="M574.5,212.3l-4.4-15.7c-0.3-0.5-0.6-0.8-1-0.8h-42.7c-0.4,0-0.7,0.3-1,0.8l-4.4,15.7 c-0.4,1.7-1.5,2.6-3.4,2.6h-34.4c-2.4,0-3.3-1.1-2.6-3.4l42.5-135.2c0.5-1.6,1.7-2.4,3.4-2.4h42.7c1.7,0,2.9,0.8,3.4,2.4L615,211.5 c0.1,0.3,0.2,0.7,0.2,1.2c0,1.5-0.9,2.2-2.8,2.2h-34.4C576.1,214.9,574.9,214,574.5,212.3z M535,166.8h25.2c0.8,0,1.1-0.4,0.8-1.2 l-12.9-45.1c-0.1-0.4-0.3-0.6-0.6-0.6c-0.3,0-0.5,0.2-0.6,0.6l-12.7,45.1C534.1,166.4,534.4,166.8,535,166.8z"></path> <path class="st9" d="M728.5,142.8c6,3.4,10.5,7.7,13.3,12.9c2.8,5.2,4.2,11.6,4.2,18.9c0,13.8-4.8,24-14.5,30.5 c-9.7,6.5-22.2,9.8-37.7,9.8h-54.2c-0.9,0-1.7-0.3-2.2-0.8c-0.5-0.5-0.8-1.3-0.8-2.2v-135c0-0.9,0.3-1.7,0.8-2.2 c0.5-0.5,1.3-0.8,2.2-0.8H692c17.2,0,30.1,3.1,38.8,9.2c8.7,6.1,13,16.4,13,30.7c0,12.8-5.1,22-15.3,27.8 C727.9,142,727.9,142.4,728.5,142.8z M674.5,107.3v20.1c0,0.7,0.3,1,1,1H692c9.8,0,14.7-3.7,14.7-11.1c0-7.4-4.9-11.1-14.7-11.1 h-16.5C674.8,106.3,674.5,106.7,674.5,107.3z M708.1,170.6c0-7.5-4.7-11.3-14.1-11.3h-18.5c-0.7,0-1,0.3-1,1v21.2c0,0.7,0.3,1,1,1 h18.3C703.4,182.5,708.1,178.5,708.1,170.6z"></path> </g> </svg>