<svg xmlns="http://www.w3.org/2000/svg" width="261.359" height="41.41" viewBox="0 0 261.359 41.41"><g id="Group_87685" data-name="Group 87685" transform="translate(-221 -2292.891)"><g id="Group_81163" data-name="Group 81163" transform="translate(221 2293.171)"><g id="Rectangle_77291" data-name="Rectangle 77291" fill="none" stroke="#fff" stroke-width="1"><rect width="41.13" height="41.13" rx="9" stroke="none"></rect><rect x="0.5" y="0.5" width="40.13" height="40.13" rx="8.5" fill="none"></rect></g><g id="Group_81152" data-name="Group 81152" transform="translate(8.551 10.532)"><path id="Path_67932" data-name="Path 67932" d="M154.155,89.636c.8-.007,1.609,0,2.413,0-.01,4.866,0,9.732-.007,14.6.927-.027,1.867.052,2.787-.049a4.441,4.441,0,0,0,1.84-8.071,4.889,4.889,0,0,0-3.114-.768q.015-1.2,0-2.4a6.978,6.978,0,0,1,5.783,2.347,6.843,6.843,0,0,1-4.842,11.336c-1.621.019-3.243.012-4.864,0C154.18,100.967,154.17,95.3,154.155,89.636Z" transform="translate(-141.257 -89.631)" fill="#fff"></path><path id="Path_67933" data-name="Path 67933" d="M84.261,109.3c1.586-.013,3.173,0,4.758-.007V126.3H86.6c.007-4.866-.015-9.734.012-14.6a11.5,11.5,0,0,0-3.673.27,4.445,4.445,0,0,0-.772,7.963,4.972,4.972,0,0,0,2.927.65q-.023,1.2,0,2.4a7.032,7.032,0,0,1-5.557-2.113,6.842,6.842,0,0,1,4.723-11.57Z" transform="translate(-77.631 -105.978)" fill="#fff"></path></g></g><g id="Group_81159" data-name="Group 81159" transform="translate(441.229 2293.171)"><g id="Rectangle_77295" data-name="Rectangle 77295" fill="none" stroke="#fff" stroke-width="1"><rect width="41.13" height="41.13" rx="9" stroke="none"></rect><rect x="0.5" y="0.5" width="40.13" height="40.13" rx="8.5" fill="none"></rect></g><g id="Group_81158" data-name="Group 81158" transform="translate(7.791 14.463)"><path id="Subtraction_10" data-name="Subtraction 10" d="M4.325,12.2A8.874,8.874,0,0,1,.079,11.119a3.163,3.163,0,0,1,.315-.847,9.826,9.826,0,0,1,.865-1.511,5.268,5.268,0,0,0,1.691.753,4.413,4.413,0,0,0,2.169.016,1.711,1.711,0,0,0,.668-.507c0-.251,0-.475.008-.687a3.3,3.3,0,0,0-1.256-.688A11.613,11.613,0,0,1,1.343,6.3,2.967,2.967,0,0,1,.063,4.42a3.666,3.666,0,0,1,.29-2.25A3.766,3.766,0,0,1,2.074.59,6.743,6.743,0,0,1,4.731,0,12.012,12.012,0,0,1,8.954.958a2.914,2.914,0,0,1-.32.779c-.158.257-.309.523-.454.78h0c-.147.26-.3.53-.459.789a11.5,11.5,0,0,0-1.551-.57,6.186,6.186,0,0,0-1.324-.144c-.11,0-.222,0-.332.009H4.4a1.729,1.729,0,0,0-.989.309.813.813,0,0,0-.178.53c-.007.063-.013.121-.023.173a3.556,3.556,0,0,0,1.024.7c.431.19.888.342,1.331.488a10.89,10.89,0,0,1,1.894.764,5.056,5.056,0,0,1,1.054.844,3.906,3.906,0,0,1,.663,1.239c.286-.657.539-1.341.785-2,.15-.4.305-.823.466-1.231.178-.527.383-1.053.582-1.561h0c.206-.527.419-1.071.6-1.618a4.724,4.724,0,0,1,.48-1.029h.824c.453,0,.937,0,1.521-.011h.841c.209.468.384.956.553,1.428h0c.074.206.15.419.229.628.316.866.646,1.743.965,2.59h0l.073.194c.4,1.167.865,2.437,1.474,4,.058-.77.051-1.557.044-2.318,0-.471-.009-.957,0-1.435V2.365h0V.208h4a10.642,10.642,0,0,1,2.316.277A3.8,3.8,0,0,1,27.2,1.959a4.307,4.307,0,0,1,.628,2.258A4.047,4.047,0,0,1,26.962,6.9a4.582,4.582,0,0,1-3.016,1.435c-.37.023-.747.026-1.066.026H21.816V9.93c0,.678,0,1.379-.008,2.069H16.177c-.174-.551-.341-1.113-.5-1.672a5.631,5.631,0,0,0-.839.127,4.831,4.831,0,0,1-.964.129h-.085a12.513,12.513,0,0,1-2.206-.275c-.2.578-.4,1.174-.572,1.7h0C10.515,12,9.978,12,9.326,12H7.634c.04-.194.084-.39.126-.579v-.008l.065-.294a5.443,5.443,0,0,1-2.754,1.054C4.826,12.193,4.574,12.2,4.325,12.2Zm9.347-8.182h0c-.079.157-.154.32-.224.473-.1.265-.186.541-.269.808-.055.178-.112.361-.173.54a11.562,11.562,0,0,0-.554,1.941A4.8,4.8,0,0,0,14.78,7.8a15.565,15.565,0,0,0-.538-1.95c-.173-.611-.365-1.228-.571-1.833Zm8.941-1.312c-.163,0-.325,0-.481.01h0c-.109,0-.212.006-.313.008,0,1,0,2.013,0,3.006.111,0,.226,0,.348.006h0c.141,0,.286.007.433.007a2.875,2.875,0,0,0,1.384-.26h0a1.481,1.481,0,0,0,.065-2.472,2.74,2.74,0,0,0-1.436-.3Z" fill="#fff"></path></g></g><g id="Group_81160" data-name="Group 81160" transform="translate(386.041 2293.171)"><g id="Rectangle_77294" data-name="Rectangle 77294" fill="none" stroke="#fff" stroke-width="1"><rect width="41.13" height="41.13" rx="9" stroke="none"></rect><rect x="0.5" y="0.5" width="40.13" height="40.13" rx="8.5" fill="none"></rect></g><path id="Path_67928" data-name="Path 67928" d="M12.8,18.373a42,42,0,0,1-5.331-.157A9.207,9.207,0,1,1,18.33,7.577a8.485,8.485,0,0,1,.141,1.528c.013,2.868,0,5.735.017,8.6,0,.508-.115.69-.658.677-1.565-.037-3.131-.013-5.032-.013m.021-7.856a6,6,0,0,0-.461-3.135,3.628,3.628,0,0,0-6.735,2.29A3.588,3.588,0,0,0,8.785,12.75c1.19.058,2.384.006,3.576.026.39.007.469-.176.461-.511-.015-.582,0-1.166,0-1.749" transform="translate(11.518 11.372)" fill="#fff"></path></g><g id="Group_81161" data-name="Group 81161" transform="translate(331.375 2293.171)"><g id="Rectangle_77293" data-name="Rectangle 77293" fill="none" stroke="#fff" stroke-width="1"><rect width="41.13" height="41.13" rx="9" stroke="none"></rect><rect x="0.5" y="0.5" width="40.13" height="40.13" rx="8.5" fill="none"></rect></g><g id="Group_81157" data-name="Group 81157" transform="translate(14.98 9.689)"><path id="Path_67929" data-name="Path 67929" d="M.02,0C.334.156.635.336.946.5q6.048,3.29,12.1,6.574C11.6,8.132,10.123,9.16,8.675,10.22,7.961,9.9,7.264,9.534,6.555,9.2Q3.393,7.663.224,6.127C.133,6.074-.02,6.047,0,5.911V.545A3.6,3.6,0,0,1,.02,0Z" fill="#fff"></path><path id="Path_67930" data-name="Path 67930" d="M0,0A.611.611,0,0,1,.19.085c1.354.88,2.71,1.76,4.07,2.628a2.25,2.25,0,0,1-.138.466C2.906,6.8,1.691,10.438.475,14.054c.547-.554,1.089-1.114,1.631-1.673.789-.838,1.606-1.649,2.4-2.487,1.812-1.872,3.621-3.759,5.439-5.63.778-.827,1.584-1.625,2.361-2.453.379-.389.754-.783,1.14-1.164.021,2.238-.008,4.482.014,6.72-.179.126-.382.211-.571.323Q6.757,11.043.623,14.393a6.074,6.074,0,0,0-.575.328A1.654,1.654,0,0,1,0,14.145Z" transform="translate(0.062 7.031)" fill="#fff"></path></g></g><g id="Group_81162" data-name="Group 81162" transform="translate(276.708 2292.891)"><g id="Rectangle_77292" data-name="Rectangle 77292" fill="none" stroke="#fff" stroke-width="1"><rect width="41.13" height="41.13" rx="9" stroke="none"></rect><rect x="0.5" y="0.5" width="40.13" height="40.13" rx="8.5" fill="none"></rect></g><g id="Group_81156" data-name="Group 81156" transform="translate(6.816 10.912)"><g id="Group_62843" data-name="Group 62843"><path id="evlFE2oBLSO236" d="M27.624,8.293a6.019,6.019,0,0,0-2.507-4.582,5.919,5.919,0,0,0-5.857-.594,5.059,5.059,0,0,0-1.56-1.7A4.826,4.826,0,0,0,13.134.958,4.915,4.915,0,0,0,11.485,2.09l-.166-.2A5.37,5.37,0,0,0,2.283,7.48,4.728,4.728,0,0,0,.754,8.932,4.615,4.615,0,0,0,0,11.075v.884a4.558,4.558,0,0,0,.581,1.874,4.669,4.669,0,0,0,1.7,1.727,4.563,4.563,0,0,0,1.963.615,4.632,4.632,0,0,0,1.3-.084,5.013,5.013,0,0,0,1.194,1.837A4.946,4.946,0,0,0,9.382,19.27a2.317,2.317,0,0,0,.3.009h1.043a2.123,2.123,0,0,0,.32-.012,4.929,4.929,0,0,0,1.887-.746,5.017,5.017,0,0,0,1.849-2.211A4.362,4.362,0,0,0,17,16.738a4.315,4.315,0,0,0,2.019-.67,4.418,4.418,0,0,0,1.469-1.552,5.991,5.991,0,0,0,7.135-5.574c.006-.214.006-.434,0-.648M5.9,9.793a.7.7,0,0,1-.329.438,1.233,1.233,0,0,1-.715.131,1.616,1.616,0,0,1-.822-.275C3.985,10.063,4,10.034,4.012,10a3.219,3.219,0,0,1,.13-.339,3.044,3.044,0,0,0,.388.2,1.226,1.226,0,0,0,.611.074.308.308,0,0,0,.272-.3A.267.267,0,0,0,5.236,9.4c-.245-.118-.539-.157-.782-.283a.714.714,0,0,1-.3-.266.731.731,0,0,1-.01-.657.814.814,0,0,1,.639-.427,1.727,1.727,0,0,1,.709.06,1.141,1.141,0,0,1,.37.179c-.047.127-.091.256-.145.38a1.806,1.806,0,0,0-.8-.2.4.4,0,0,0-.262.094.238.238,0,0,0-.055.283.418.418,0,0,0,.191.15c.244.11.521.157.755.288a.721.721,0,0,1,.3.285.74.74,0,0,1,.042.51m2.384.385a.232.232,0,0,1-.111.047,4.189,4.189,0,0,1-.914.125A1.4,1.4,0,0,1,6.54,10.2a.672.672,0,0,1-.317-.453.849.849,0,0,1,.1-.617.9.9,0,0,1,.553-.374,2.286,2.286,0,0,1,.895-.005.824.824,0,0,0-.046-.344.335.335,0,0,0-.2-.165A.9.9,0,0,0,7.177,8.2a1.549,1.549,0,0,0-.594.145c-.03.01-.07.042-.1.023a2.343,2.343,0,0,1-.093-.23.406.406,0,0,1-.035-.133c.013-.033.061-.053.09-.071a1.806,1.806,0,0,1,.483-.145,1.978,1.978,0,0,1,.731.011.789.789,0,0,1,.463.283,1.011,1.011,0,0,1,.163.6V9.95a1.924,1.924,0,0,1,0,.232m1.032.125c-.167,0-.336.006-.5,0-.006-.14,0-.28,0-.42v-3c.005-.037-.01-.075.031-.094a4.246,4.246,0,0,1,.437,0c.057,0,.046.056.049.1V9.91a3.122,3.122,0,0,1-.011.4M11.981,9.2c-.123.008-.245.006-.369.005H10.327a1.01,1.01,0,0,0,.091.4.553.553,0,0,0,.3.264,1.345,1.345,0,0,0,.635.039,3.037,3.037,0,0,0,.411-.106c.047.129.1.256.134.387a1.485,1.485,0,0,1-.642.17,1.565,1.565,0,0,1-1.006-.205,1.037,1.037,0,0,1-.415-.584A1.881,1.881,0,0,1,9.8,8.751a1.2,1.2,0,0,1,.357-.7,1.06,1.06,0,0,1,.51-.256,1.244,1.244,0,0,1,.8.092.993.993,0,0,1,.461.581,1.685,1.685,0,0,1,.043.721m1.2,1.174a1.651,1.651,0,0,1-.875-.3,2.12,2.12,0,0,1,.148-.393.339.339,0,0,1,.131.06,1.3,1.3,0,0,0,.845.21.326.326,0,0,0,.3-.262.246.246,0,0,0-.149-.258c-.243-.127-.535-.163-.782-.285a.683.683,0,0,1-.373-.375.741.741,0,0,1,.148-.734.885.885,0,0,1,.561-.261,1.674,1.674,0,0,1,.971.193c.021.016.061.033.059.062a1.4,1.4,0,0,1-.064.194.624.624,0,0,1-.079.169c-.095-.03-.181-.081-.275-.111a1.6,1.6,0,0,0-.5-.087.4.4,0,0,0-.283.1.244.244,0,0,0-.059.263.382.382,0,0,0,.2.164c.226.1.488.153.71.263a.8.8,0,0,1,.343.293.746.746,0,0,1-.24.942,1.182,1.182,0,0,1-.736.155M16.1,8.213c0,.03-.055.027-.075.03h-.5l-.3,1.692a4.722,4.722,0,0,1-.216.92.874.874,0,0,1-.522.542,1.223,1.223,0,0,1-.774-.024,1.9,1.9,0,0,1,.146-.415.653.653,0,0,0,.456.017.4.4,0,0,0,.194-.214,2.684,2.684,0,0,0,.17-.65c.11-.624.225-1.247.335-1.872h-.351a.121.121,0,0,1-.055-.016,2.439,2.439,0,0,1,.072-.4,1.954,1.954,0,0,1,.4-.017,1.587,1.587,0,0,1,.293-.78.83.83,0,0,1,.55-.287,1.189,1.189,0,0,1,.6.063c-.046.137-.094.275-.15.408a.617.617,0,0,0-.544.039.883.883,0,0,0-.226.557,5.436,5.436,0,0,1,.571.01c-.022.13-.039.263-.071.39M18.355,9.8a1.028,1.028,0,0,1-.594.5,1.244,1.244,0,0,1-1.158-.2,1.119,1.119,0,0,1-.343-.586,1.923,1.923,0,0,1-.02-.814,1.217,1.217,0,0,1,.251-.558,1.05,1.05,0,0,1,.612-.355,1.416,1.416,0,0,1,.589.015,1.04,1.04,0,0,1,.619.445,1.4,1.4,0,0,1,.2.631,1.7,1.7,0,0,1-.157.924m1.918-1.549a.5.5,0,0,1-.146-.007.567.567,0,0,0-.515.182.93.93,0,0,0-.157.586V10.2a.112.112,0,0,1-.027.093c-.12.012-.243,0-.363.006-.039,0-.094.008-.123-.026a1.24,1.24,0,0,1-.006-.188V7.824a2.309,2.309,0,0,1,.5,0V8.05a.84.84,0,0,1,.215-.167.962.962,0,0,1,.774-.032,3.269,3.269,0,0,1-.153.4m2.162,1.977a1.7,1.7,0,0,1-.412.1,1.636,1.636,0,0,1-.882-.109,1.008,1.008,0,0,1-.46-.447,1.6,1.6,0,0,1-.157-.855,1.329,1.329,0,0,1,.3-.781,1.131,1.131,0,0,1,.759-.378,1.969,1.969,0,0,1,.864.11,2.175,2.175,0,0,1-.142.393.435.435,0,0,1-.131-.022,1.556,1.556,0,0,0-.478-.043.6.6,0,0,0-.432.2.969.969,0,0,0-.2.611,1.073,1.073,0,0,0,.131.6.641.641,0,0,0,.458.283,1.488,1.488,0,0,0,.681-.079c.039.109.083.216.12.326.007.027.026.077-.013.087M24.8,9.18a1.689,1.689,0,0,1-.279.009H23.16a.93.93,0,0,0,.084.4.562.562,0,0,0,.318.272,1.356,1.356,0,0,0,.612.037,2.206,2.206,0,0,0,.42-.111c.043.108.086.217.12.328,0,.024.02.066-.012.079a1.485,1.485,0,0,1-.6.153,1.665,1.665,0,0,1-.922-.148,1.017,1.017,0,0,1-.465-.51,1.682,1.682,0,0,1-.1-.67,1.5,1.5,0,0,1,.215-.771,1.048,1.048,0,0,1,.642-.447,1.142,1.142,0,0,1,1,.194,1.06,1.06,0,0,1,.351.684,1.452,1.452,0,0,1-.008.508" transform="translate(0 0.025)" fill="#fff"></path><path id="evlFE2oBLSO238" d="M457.017,362.462H455.87a1.055,1.055,0,0,1,.106-.335.508.508,0,0,1,.277-.243.681.681,0,0,1,.363-.014.5.5,0,0,1,.314.252.944.944,0,0,1,.087.34" transform="translate(-432.663 -353.64)" fill="#fff"></path><path id="evlFE2oBLSO240" d="M457.017,362.462H455.87a1.055,1.055,0,0,1,.106-.335.508.508,0,0,1,.277-.243.681.681,0,0,1,.363-.014.5.5,0,0,1,.314.252.944.944,0,0,1,.087.34" transform="translate(-445.536 -353.64)" fill="#fff"></path><path id="evlFE2oBLSO242" d="M740.348,363.632a.62.62,0,0,1-.264.393.676.676,0,0,1-.477.05.48.48,0,0,1-.31-.25,1.306,1.306,0,0,1-.122-.622,1.194,1.194,0,0,1,.141-.6.471.471,0,0,1,.3-.217.646.646,0,0,1,.521.084.732.732,0,0,1,.238.459,1.746,1.746,0,0,1-.024.707" transform="translate(-722.419 -354.137)" fill="#fff"></path><path id="evlFE2oBLSO245" d="M297.884,403.585a2.765,2.765,0,0,1-.563.057.668.668,0,0,1-.346-.1.294.294,0,0,1-.123-.188.437.437,0,0,1,.079-.369.571.571,0,0,1,.346-.155,2.55,2.55,0,0,1,.609.024v.732" transform="translate(-290.112 -393.678)" fill="#fff"></path></g></g></g></g></svg>