<svg xmlns="http://www.w3.org/2000/svg" xmlns:xlink="http://www.w3.org/1999/xlink" width="405.064" height="53.636" viewBox="0 0 405.064 53.636"><defs><clipPath id="clip-path"><rect id="Rectangle_77637" data-name="Rectangle 77637" width="71.813" height="12.234" fill="#fff"></rect></clipPath><clipPath id="clip-path-2"><rect id="Rectangle_77639" data-name="Rectangle 77639" width="79" height="53.636" rx="9" transform="translate(4072.378 425.829)" fill="none" stroke="#fff" stroke-width="1"></rect></clipPath></defs><g id="Group_81195" data-name="Group 81195" transform="translate(-22363.378 10928.145)"><g id="Group_81191" data-name="Group 81191"><g id="Group_81183" data-name="Group 81183" transform="translate(18280.064 -11353.974)"><g id="Rectangle_77294" data-name="Rectangle 77294" transform="translate(4409.378 425.829)" fill="none" stroke="#fff" stroke-width="1"><rect width="79" height="53.636" rx="9" stroke="none"></rect><rect x="0.5" y="0.5" width="78" height="52.636" rx="8.5" fill="none"></rect></g><g id="Group_81181" data-name="Group 81181" transform="translate(4412.971 446.53)"><g id="Group_81180" data-name="Group 81180" clip-path="url(#clip-path)"><path id="Path_94405" data-name="Path 94405" d="M0,4.177c1.221,0,2.442-.034,3.662.008a6.109,6.109,0,0,1,3.381,1.1A5.216,5.216,0,0,1,9.27,8.971a5.545,5.545,0,0,1-.97,4.106,5.462,5.462,0,0,1-4.079,2.37c-1.1.109-2.2.028-3.3.046-.3,0-.61-.008-.914-.012V4.177M2.218,9.829v3.486c0,.171.051.228.223.224.411-.008.822,0,1.232-.043a3.383,3.383,0,0,0,2.208-.93A3.738,3.738,0,0,0,6.8,8.625,3.292,3.292,0,0,0,4.208,6.256,7.986,7.986,0,0,0,2.5,6.128c-.279,0-.28,0-.28.271v3.43" transform="translate(0 -3.916)" fill="#fff"></path><path id="Path_94406" data-name="Path 94406" d="M373.55,0a5.958,5.958,0,0,1,1.65.4c.178.075.352.158.53.233a.223.223,0,0,1,.146.233V3.141c0,.053.02.125-.048.146-.052.017-.085-.042-.121-.075a3.984,3.984,0,0,0-1.726-1.037,3.632,3.632,0,0,0-4.407,2.6,4,4,0,0,0,.707,3.7,3.425,3.425,0,0,0,2.3,1.254,3.464,3.464,0,0,0,1.94-.23,4.3,4.3,0,0,0,1.144-.8c.046-.043.092-.129.165-.1s.041.123.042.188v2.163a.288.288,0,0,1-.192.3,6.128,6.128,0,0,1-6.824-1.085A5.647,5.647,0,0,1,367.1,6.458a5.729,5.729,0,0,1,1.76-4.748A5.882,5.882,0,0,1,372.544.026.782.782,0,0,0,372.69,0Z" transform="translate(-345.241)" fill="#fff"></path><path id="Path_94407" data-name="Path 94407" d="M536.015,9.825a6.011,6.011,0,1,1-5.934-6.017,6.011,6.011,0,0,1,5.934,6.017" transform="translate(-492.815 -3.581)" fill="#fff"></path><path id="Path_94408" data-name="Path 94408" d="M1045.64,9.866V4.5c0-.294,0-.294.3-.294,1.091,0,2.181-.014,3.271.007a4.583,4.583,0,0,1,2.274.582,2.909,2.909,0,0,1,1.46,2.439,4.04,4.04,0,0,1-.085,1.26,2.884,2.884,0,0,1-2.137,2.2c-.314.094-.315.092-.123.348l3.191,4.255a.561.561,0,0,1,.034.045c.027.046.088.088.06.147s-.1.038-.152.039h-.953c-.442,0-.885-.01-1.327,0a.436.436,0,0,1-.423-.23c-.908-1.36-1.825-2.715-2.739-4.072-.017-.026-.037-.05-.052-.077-.056-.1-.13-.172-.255-.14s-.087.15-.087.234v3.9c0,.437.016.381-.382.383h-1.626c-.246,0-.25,0-.25-.252V9.863M1047.9,7.7V9.2c0,.114.018.194.161.191a6.777,6.777,0,0,0,1.119-.047,1.575,1.575,0,0,0,1.457-1.514,1.522,1.522,0,0,0-1.223-1.706,6.131,6.131,0,0,0-1.3-.089c-.166,0-.216.058-.214.218.007.485,0,.97,0,1.455" transform="translate(-983.419 -3.948)" fill="#fff"></path><path id="Path_94409" data-name="Path 94409" d="M915.777,9.92V4.587c0-.32,0-.32.319-.32h5.72c.281,0,.282,0,.282.278V5.962c0,.259,0,.263-.258.263h-3.514c-.273,0-.273,0-.274.263V8.427c0,.24.009.248.256.248h3.365c.264,0,.274.011.274.272,0,.491-.005.982,0,1.473,0,.181-.067.237-.242.236h-3.383c-.272,0-.273,0-.273.267V13.4c0,.181.062.234.238.233,1.184-.006,2.368,0,3.552,0,.255,0,.259,0,.26.263,0,.485-.007.97,0,1.454,0,.189-.06.244-.248.244-1.932-.006-3.863,0-5.795,0-.278,0-.282,0-.282-.281V9.927" transform="translate(-861.287 -4.013)" fill="#fff"></path><path id="Path_94410" data-name="Path 94410" d="M228.734,1.082A5.018,5.018,0,0,1,231.9,2.226c.119.1.132.166.036.288q-.485.615-.953,1.245c-.094.127-.157.118-.258.009a2.153,2.153,0,0,0-1.261-.748,1.994,1.994,0,0,0-1.579.343,1.009,1.009,0,0,0,.045,1.664,6.784,6.784,0,0,0,1.3.6,12.585,12.585,0,0,1,1.618.725,2.93,2.93,0,0,1,1.582,2.975,3.586,3.586,0,0,1-1.119,2.527,3.772,3.772,0,0,1-2.122.976,4.653,4.653,0,0,1-2.868-.456,4.91,4.91,0,0,1-1.686-1.555.146.146,0,0,1,.028-.224c.406-.385.812-.771,1.211-1.165.121-.119.174-.079.246.045a2.523,2.523,0,0,0,1.549,1.236A2.127,2.127,0,0,0,229.3,10.6a1.458,1.458,0,0,0,.813-1.351A1.328,1.328,0,0,0,229.283,8a15.351,15.351,0,0,0-1.542-.619,7.708,7.708,0,0,1-1.25-.586,2.664,2.664,0,0,1-1.329-2.767,3.3,3.3,0,0,1,2.975-2.909,3.718,3.718,0,0,1,.6-.038" transform="translate(-211.24 -1.017)" fill="#fff"></path><path id="Path_94411" data-name="Path 94411" d="M722.579,11.658a.376.376,0,0,0,.124-.209q1.414-3.5,2.82-7.007a.354.354,0,0,1,.4-.263c.635.014,1.271,0,1.907.005.237,0,.249.016.16.225l-2.735,6.478c-.658,1.558-1.319,3.114-1.97,4.675a.33.33,0,0,1-.375.245,6.027,6.027,0,0,0-.729,0,.283.283,0,0,1-.32-.209q-1.041-2.536-2.1-5.067l-2.492-6.013c-.138-.332-.138-.332.22-.332h1.888a.275.275,0,0,1,.3.2q1.4,3.546,2.818,7.089c.023.057.048.112.079.186" transform="translate(-674.512 -3.929)" fill="#fff"></path><path id="Path_94412" data-name="Path 94412" d="M175.1,9.919v5.369c0,.3,0,.3-.3.3-.579,0-1.159-.007-1.738,0-.2,0-.243-.069-.243-.249q.005-5.415,0-10.831c0-.23.018-.247.242-.247h1.775c.246,0,.259.013.259.268V9.916" transform="translate(-162.54 -4.009)" fill="#fff"></path><path id="Path_94413" data-name="Path 94413" d="M1178.91,3.8a.863.863,0,0,1-.886.881.888.888,0,0,1,.013-1.776.867.867,0,0,1,.873.894m-.94.25c-.045.028-.036.062-.036.091,0,.1-.018.171-.141.171s-.143-.089-.143-.188V3.657c0-.4.037-.433.439-.373a.307.307,0,0,1,.274.2.3.3,0,0,1-.068.344c-.092.077-.063.13,0,.2.042.046.08.1.118.144.07.088.125.078.186-.015a.7.7,0,0,0-.14-.882.66.66,0,0,0-.858,0,.713.713,0,0,0-.111.917.657.657,0,0,0,.827.223c.034-.017.088-.025.067-.1-.235.079-.292-.145-.411-.259" transform="translate(-1107.094 -2.732)" fill="#fff"></path></g></g><g id="Rectangle_77638" data-name="Rectangle 77638" transform="translate(4409.378 425.829)" fill="none" stroke="#fff" stroke-width="1"><rect width="79" height="53.636" rx="9" stroke="none"></rect><rect x="0.5" y="0.5" width="78" height="52.636" rx="8.5" fill="none"></rect></g></g></g><g id="Group_81193" data-name="Group 81193"><g id="Group_81185" data-name="Group 81185" transform="translate(18287 -11353.974)"><g id="Rectangle_77292" data-name="Rectangle 77292" transform="translate(4185.066 425.829)" fill="none" stroke="#fff" stroke-width="1"><rect width="79" height="53.636" rx="9" stroke="none"></rect><rect x="0.5" y="0.5" width="78" height="52.636" rx="8.5" fill="none"></rect></g><g id="Group_81182" data-name="Group 81182" transform="translate(7.026 -8.018)"><path id="Path_75331" data-name="Path 75331" d="M2757.33,212.245a12.717,12.717,0,0,1-8.46,3.235c-7.266,0-13.158-6.174-13.158-13.8s5.892-13.8,13.158-13.8a12.739,12.739,0,0,1,8.486,3.254,13.778,13.778,0,0,0-.026,21.11Z" transform="translate(1460.528 258.985)" fill="#fff"></path><path id="Path_75332" data-name="Path 75332" d="M2771.35,203.5a14.018,14.018,0,0,1-4.7,10.565,13.778,13.778,0,0,1,.027-21.11A14.062,14.062,0,0,1,2771.35,203.5Z" transform="translate(1450.589 257.17)" fill="#fff" opacity="0.668"></path><path id="Path_75333" data-name="Path 75333" d="M2791.1,201.828a13.453,13.453,0,0,1-13.3,13.594,13.111,13.111,0,0,1-8.4-3.049,14.229,14.229,0,0,0,.027-21.11,13.108,13.108,0,0,1,8.377-3.023A13.448,13.448,0,0,1,2791.1,201.828Z" transform="translate(1447.744 258.857)" fill="#fff"></path></g></g></g><g id="Group_81192" data-name="Group 81192"><g id="Group_81184" data-name="Group 81184" transform="translate(18283 -11353.974)"><g id="Rectangle_77293" data-name="Rectangle 77293" transform="translate(4297.754 425.829)" fill="none" stroke="#fff" stroke-width="1"><rect width="79" height="53.636" rx="9" stroke="none"></rect><rect x="0.5" y="0.5" width="78" height="52.636" rx="8.5" fill="none"></rect></g><g id="Group_74355" data-name="Group 74355" transform="translate(4310.012 443.771)"><path id="Path_75313" data-name="Path 75313" d="M112.46.772c-.261,1.216-.516,2.433-.775,3.65a8.417,8.417,0,0,0-4.265-.779,2.433,2.433,0,0,0-1.729.83,1.024,1.024,0,0,0-.046,1.172,3.45,3.45,0,0,0,1.174.958,15.6,15.6,0,0,1,3.589,2.3,4.066,4.066,0,0,1,1.21,2.471,5.365,5.365,0,0,1-.87,3.536,6.237,6.237,0,0,1-3.171,2.3,12.135,12.135,0,0,1-5.736.388,11.029,11.029,0,0,1-2.761-.74l.8-3.77a12.787,12.787,0,0,0,1.838.742,8.9,8.9,0,0,0,3.02.325,3.2,3.2,0,0,0,1.844-.678,1.317,1.317,0,0,0,.392-1.371,1.959,1.959,0,0,0-.781-.918c-.766-.541-1.68-.895-2.477-1.382A6.821,6.821,0,0,1,101.6,7.963a3.842,3.842,0,0,1-.711-2.266,5.028,5.028,0,0,1,1.224-3.277A7.023,7.023,0,0,1,105.9.281a11.5,11.5,0,0,1,6.563.491Z" transform="translate(-72.724 -0.015)" fill="#fff"></path><path id="Path_75314" data-name="Path 75314" d="M.106,1.177H7.511a2.079,2.079,0,0,1,1.256.363,2.19,2.19,0,0,1,.876,1.45q.923,4.927,1.84,9.854,2.3-5.832,4.579-11.67h4.631L13.969,17.366c-.139.332-.269.665-.424.992-1.548-.014-3.1,0-4.644-.006Q7.136,11.487,5.381,4.619a2.2,2.2,0,0,0-.569-1.155,4.623,4.623,0,0,0-1.17-.658A21.547,21.547,0,0,0,0,1.68C.035,1.513.07,1.344.106,1.177Z" transform="translate(0 -0.868)" fill="#fff"></path><path id="Path_75315" data-name="Path 75315" d="M74.812,1.177c1.469-.008,2.939,0,4.408,0q-1.813,8.589-3.641,17.177h-4.4Q72.985,9.761,74.812,1.177Z" transform="translate(-52.242 -0.865)" fill="#fff"></path><path id="Path_75316" data-name="Path 75316" d="M157.671,1.177c-1.286,0-2.574-.008-3.86,0a2,2,0,0,0-1.776,1.25c-2.2,5.294-4.412,10.627-6.608,15.92h4.629q.457-1.281.919-2.563h5.643q.261,1.281.529,2.56h4.076Q159.454,9.765,157.671,1.177Zm-5.427,11.088q1.152-3.213,2.31-6.425.668,3.211,1.33,6.425Z" transform="translate(-106.739 -0.867)" fill="#fff"></path></g></g></g><g id="Group_81194" data-name="Group 81194"><g id="Group_81186" data-name="Group 81186" transform="translate(18291 -11353.974)"><g id="Rectangle_77291" data-name="Rectangle 77291" transform="translate(4072.378 425.829)" fill="none" stroke="#fff" stroke-width="1"><rect width="79" height="53.636" rx="9" stroke="none"></rect><rect x="0.5" y="0.5" width="78" height="52.636" rx="8.5" fill="none"></rect></g><g id="Mask_Group_45417" data-name="Mask Group 45417" clip-path="url(#clip-path-2)"><g id="Group_73900" data-name="Group 73900" transform="translate(4082.768 440.003)"><path id="Path_75317" data-name="Path 75317" d="M8.684.026C7.406.018,6.125.012,4.85.028,3.241,3.7,1.6,7.362,0,11.04c1.065.029,2.13-.008,3.195.031.365-.727.645-1.485.959-2.232H9.265c.324.735.635,1.476.949,2.214,1.106,0,2.209.01,3.315-.009C11.933,7.362,10.283,3.7,8.684.026ZM5.19,6.385c.484-1.206.982-2.409,1.5-3.6.615,1.147,1.034,2.408,1.565,3.6q-1.535.018-3.071,0Z" transform="translate(0 -0.011)" fill="#fff"></path><path id="Path_75318" data-name="Path 75318" d="M27.089.01H31.71c.857,2.286,1.625,4.613,2.534,6.878C35.134,4.613,35.885,2.276,36.78,0c1.526.025,3.055,0,4.581.016q0,5.51,0,11.02c-.966.014-1.933.008-2.9.01-.046-2.608.1-5.242-.089-7.845-.882,2.632-1.916,5.211-2.83,7.831-.859,0-1.721.046-2.578,0-.2-.153-.247-.49-.347-.714-.854-2.379-1.746-4.746-2.6-7.127C29.975,5.807,30,8.426,30,11.041c-.967.011-1.933.006-2.9.006Q27.087,5.528,27.089.01Z" transform="translate(-12.958)" fill="#fff"></path><path id="Path_75319" data-name="Path 75319" d="M58.748.022q4.676-.008,9.355,0c0,.826-.006,1.654.009,2.479-2.128.064-4.26.009-6.389.027V4.283c2.072.008,4.144,0,6.216,0,0,.829,0,1.661,0,2.49-2.072.025-4.146,0-6.22.012,0,.586,0,1.173-.008,1.758,2.128.021,4.258-.031,6.384.027q.006,1.235,0,2.473-4.68.017-9.359,0C58.748,7.373,58.742,3.7,58.748.022Z" transform="translate(-28.099 -0.011)" fill="#fff"></path><path id="Path_75320" data-name="Path 75320" d="M87.981,7.3c-.114-.129-.115-.209-.01-.239a5.516,5.516,0,0,0,1.582-.834A3.6,3.6,0,0,0,89.65,1,4.115,4.115,0,0,0,86.9.016C84.732,0,82.57.027,80.409,0c-.049,3.679-.01,7.362-.02,11.041.982,0,1.966.006,2.948,0,.006-1.287-.011-2.574.008-3.859h1.043c1.131,1.273,2.243,2.566,3.361,3.852q1.834.023,3.669-.006C90.26,9.8,89.12,8.543,87.981,7.3Zm-.488-2.938a1.743,1.743,0,0,1-1.372.405c-.932-.008-1.862.016-2.794-.033.01-.735.01-1.472.012-2.209h2.782a2.019,2.019,0,0,1,1.182.241,1.091,1.091,0,0,1,.19,1.6Z" transform="translate(-38.464)" fill="#fff"></path><path id="Path_75321" data-name="Path 75321" d="M103.155.024c.991-.008,1.982-.01,2.969,0v11.02q-1.485.02-2.97,0Q103.155,5.531,103.155.024Z" transform="translate(-49.357 -0.011)" fill="#fff"></path><path id="Path_75322" data-name="Path 75322" d="M117,.028c1.3-.027,2.6-.006,3.9-.006q.008,1.276,0,2.552c-1.347.129-2.935-.156-4.328.174a2.417,2.417,0,0,0-1.707,1.973,3.358,3.358,0,0,0,.959,3.311c.96.745,2.371.454,3.523.522a26.367,26.367,0,0,1-1.1,2.5,7.024,7.024,0,0,1-4.1-.762A4.882,4.882,0,0,1,111.9,6.466a6.382,6.382,0,0,1,.922-4.373A5.17,5.17,0,0,1,117,.028Z" transform="translate(-53.514 -0.011)" fill="#fff"></path><path id="Path_75323" data-name="Path 75323" d="M135.4.007c-1.26.037-2.527-.04-3.785.033-1.665,3.631-3.256,7.349-4.881,11,1.082.006,2.166.008,3.249,0,.3-.735.608-1.468.911-2.2q2.567-.014,5.136,0,.463,1.106.93,2.209c1.111,0,2.222.006,3.333-.009C138.65,7.367,137.058,3.671,135.4.007Zm-3.455,6.377A35.139,35.139,0,0,1,133.5,2.778q.758,1.806,1.512,3.609c-1.021,0-2.042.006-3.064,0Z" transform="translate(-60.64 -0.007)" fill="#fff"></path><path id="Path_75324" data-name="Path 75324" d="M27.1,27.3c3.095-.023,6.21-.006,9.307-.008,0,.834,0,1.669-.008,2.506H30.017c0,.585,0,1.167.006,1.752h6.218c.008.834.01,1.672,0,2.51H30.019l-.006,1.765c2.132.011,4.262,0,6.392.006q.006,1.252,0,2.5c-3.108.012-6.216,0-9.324.008C27.094,34.671,27.061,30.974,27.1,27.3Z" transform="translate(-12.95 -13.066)" fill="#fff"></path><path id="Path_75325" data-name="Path 75325" d="M45.92,27.3c1.289,0,2.579-.014,3.87.006.928,1.119,1.892,2.211,2.848,3.311.853-.974,1.7-1.958,2.541-2.942.152-.145.3-.4.532-.374,1.184-.021,2.371,0,3.554,0-1.6,1.783-3.186,3.582-4.781,5.372,1.617,1.921,3.314,3.775,4.97,5.662-1.289.006-2.577.012-3.866,0-.986-1.177-1.991-2.336-3-3.494q-1.508,1.74-3.006,3.488-1.872.02-3.745,0c1.626-1.852,3.27-3.691,4.9-5.539C49.213,30.9,47.508,29.139,45.92,27.3Z" transform="translate(-21.929 -13.06)" fill="#fff"></path><path id="Path_75326" data-name="Path 75326" d="M81.939,28.272a4.171,4.171,0,0,0-3-.988c-2.1.017-4.2-.025-6.29.017-.037,3.668-.008,7.36-.013,11.032h2.938c0-1.206-.008-2.411.008-3.617,1.31-.012,2.622.027,3.929-.016a3.71,3.71,0,0,0,3.1-1.877,3.894,3.894,0,0,0-.672-4.551Zm-2.845,3.907c-1.169.062-2.35.014-3.523.016.017-.791-.024-1.588.021-2.379.855-.052,1.718-.006,2.576-.026.534.019,1.117-.075,1.54.322a1.2,1.2,0,0,1-.615,2.067Z" transform="translate(-34.756 -13.054)" fill="#fff"></path><path id="Path_75327" data-name="Path 75327" d="M102.418,34.38a4.576,4.576,0,0,0,1.882-.98,3.591,3.591,0,0,0,.049-5.059,4.093,4.093,0,0,0-2.935-1.043H95.028c-.04,3.681-.042,7.372,0,11.053q1.464-.012,2.929,0c.048-1.291.009-2.581.027-3.874h1.043c1.134,1.279,2.246,2.577,3.371,3.864q1.826.015,3.651,0C104.839,37.012,103.643,35.681,102.418,34.38Zm-.084-3.123a1.1,1.1,0,0,1-1.111.749c-1.081.032-2.163,0-3.243.007.008-.73-.031-1.464.011-2.194.88-.046,1.763,0,2.645-.023a2.309,2.309,0,0,1,1.263.218,1.054,1.054,0,0,1,.434,1.244Z" transform="translate(-45.451 -13.061)" fill="#fff"></path><path id="Path_75328" data-name="Path 75328" d="M117.845,27.315c3.1-.052,6.212,0,9.311-.025q.009,1.256,0,2.508c-2.128.012-4.258-.006-6.386.01l.006,1.742c2.086.023,4.175-.007,6.258.018,0,.829.006,1.659,0,2.489-2.086.025-4.177,0-6.265.014v1.757c2.129.014,4.256,0,6.386.006q.009,1.252,0,2.508c-3.108-.006-6.216,0-9.322-.006C117.843,34.669,117.815,30.977,117.845,27.315Z" transform="translate(-56.378 -13.06)" fill="#fff"></path><path id="Path_75329" data-name="Path 75329" d="M142.11,27.3c2,0,4.012-.012,6.017.012q-.526,1.267-1.134,2.5H142.3a1.17,1.17,0,0,0-1.071.4.858.858,0,0,0,.5,1.308c1.277.149,2.593-.042,3.874.1A3.09,3.09,0,0,1,147.925,33a3.551,3.551,0,0,1-3.3,5.34c-2.043.012-4.088,0-6.131.006q-.012-1.252,0-2.508c1.973-.008,3.949.011,5.921,0a.913.913,0,0,0,.936-.534.866.866,0,0,0-.754-1.212c-1.144-.069-2.3.04-3.448-.048a3.224,3.224,0,0,1-2.582-1.512,3.581,3.581,0,0,1,.574-4.215A4.237,4.237,0,0,1,142.11,27.3Z" transform="translate(-66.091 -13.063)" fill="#fff"></path><path id="Path_75330" data-name="Path 75330" d="M162.862,27.3c2.019,0,4.042-.009,6.061,0-.326.862-.731,1.684-1.131,2.512-1.448-.023-2.9,0-4.346-.015-.49.023-.984-.071-1.356.322a.868.868,0,0,0,.4,1.366c1.38.22,2.855-.087,4.235.179a2.9,2.9,0,0,1,2.124,1.553,3.721,3.721,0,0,1-.7,4.117,4.067,4.067,0,0,1-2.774,1c-2.027.01-4.056,0-6.083,0-.006-.834-.008-1.669,0-2.5,1.961-.006,3.928.008,5.89,0a.979.979,0,0,0,.965-.513.868.868,0,0,0-.666-1.223c-1.252-.108-2.535.062-3.785-.091a3.174,3.174,0,0,1-2.352-1.513,3.589,3.589,0,0,1,.573-4.156A4.153,4.153,0,0,1,162.862,27.3Z" transform="translate(-76.038 -13.062)" fill="#fff"></path></g></g></g></g></g></svg>