<svg xmlns="http://www.w3.org/2000/svg" width="67.997" height="80" viewBox="0 0 67.997 80"><g id="Group_276" data-name="Group 276" transform="translate(-3366.901 -1720.085)"><path id="Path_329" data-name="Path 329" d="M3399.891,1720.085h1.875a13.557,13.557,0,0,1,2,.983c.8.566,1.51,1.273,2.258,1.92a31.528,31.528,0,0,0,12.039,6.525,52.371,52.371,0,0,0,9.225,1.5,8.481,8.481,0,0,1,7.438,7.982,154.881,154.881,0,0,1-.3,19.9,59.826,59.826,0,0,1-2.663,13.28,40.3,40.3,0,0,1-12.855,18.816,53.344,53.344,0,0,1-16.168,8.777,5.9,5.9,0,0,1-4.053-.082,56.743,56.743,0,0,1-12.239-5.969,40.311,40.311,0,0,1-13.641-14.742,50.983,50.983,0,0,1-5.69-21.868c-.3-5.842-.2-11.708-.185-17.563a8.411,8.411,0,0,1,7.675-8.559c1.677-.209,3.367-.333,5.035-.6a31.138,31.138,0,0,0,16.455-7.82A10.2,10.2,0,0,1,3399.891,1720.085Zm20.877,40.006a19.94,19.94,0,1,0-19.92,19.94A20.012,20.012,0,0,0,3420.769,1760.091Z" fill="#2a6eb0"></path><path id="Path_330" data-name="Path 330" d="M3516.709,1893.505a15.239,15.239,0,1,1-15.273-15.217A15.282,15.282,0,0,1,3516.709,1893.505Zm-18.618,3.066a1.96,1.96,0,0,1-.262-.115c-.741-.73-1.477-1.465-2.221-2.192a2.352,2.352,0,0,0-3.471-.2,2.4,2.4,0,0,0,.174,3.53q1.837,1.86,3.7,3.7c1.306,1.3,2.566,1.307,3.86.015q5.221-5.211,10.429-10.433a2.4,2.4,0,0,0,.227-3.528,2.361,2.361,0,0,0-3.524.2q-3.764,3.742-7.506,7.506C3499,1895.547,3498.543,1896.08,3498.092,1896.572Z" transform="translate(-100.646 -133.432)" fill="#9a81ff"></path></g></svg>