<svg xmlns="http://www.w3.org/2000/svg" id="Group_391" data-name="Group 391" width="85.073" height="71.09" viewBox="0 0 85.073 71.09"><path id="forum_FILL0_wght400_GRAD0_opsz48" d="M80,229.384V179.737a3.466,3.466,0,0,1,1.382-2.491A4.266,4.266,0,0,1,84.254,176h55.191a4.462,4.462,0,0,1,2.978,1.2,3.4,3.4,0,0,1,1.382,2.536v31.675a3.466,3.466,0,0,1-1.382,2.491,4.377,4.377,0,0,1-2.978,1.246H97.015Zm21.375,3.559A4.456,4.456,0,0,1,98.45,231.7a3.432,3.432,0,0,1-1.436-2.491v-8.719h53.171V190.236H160.82a4.266,4.266,0,0,1,2.871,1.246,3.527,3.527,0,0,1,1.382,2.58V247.09l-16.908-14.147Zm36.05-51.6H86.381v35.145l7.976-6.673h43.068Zm-51.044,0v0Z" transform="translate(-80 -176)" fill="#2a6eb0"></path><path id="forum_FILL0_wght400_GRAD0_opsz48-2" data-name="forum_FILL0_wght400_GRAD0_opsz48" d="M80,229.384V179.737a3.466,3.466,0,0,1,1.382-2.491A4.266,4.266,0,0,1,84.254,176h55.191a4.462,4.462,0,0,1,2.978,1.2,3.4,3.4,0,0,1,1.382,2.536v31.675a3.466,3.466,0,0,1-1.382,2.491,4.377,4.377,0,0,1-2.978,1.246H97.015Zm57.424-48.046H86.381v35.145l7.976-6.673h43.068Zm-51.044,0v0Z" transform="translate(-80 -176)" fill="#9a81ff"></path></svg>