<svg xmlns="http://www.w3.org/2000/svg" width="79.995" height="80" viewBox="0 0 79.995 80"><g id="Group_273" data-name="Group 273" transform="translate(-4032.766 -2424.766)"><path id="Path_318" data-name="Path 318" d="M4032.766,2476.942V2476a11.511,11.511,0,0,1,.9-1.159q24.58-24.6,49.178-49.178a11.5,11.5,0,0,1,1.158-.9h.937c.355.3.735.567,1.061.892q12.928,12.915,25.845,25.842c1.214,1.215,1.214,1.968.018,3.165l-49.09,49.091c-1.351,1.351-2.013,1.345-3.382-.025q-12.59-12.591-25.177-25.184C4033.708,2478.038,4033.249,2477.479,4032.766,2476.942Zm50.033-8.434c-.034-.44-.036-.886-.107-1.321a15.814,15.814,0,0,0-12.725-12.35,6.157,6.157,0,0,0-7.14,7.057c.745,6.022,6.36,11.843,12.36,12.812C4079.5,2475.4,4082.8,2472.708,4082.8,2468.508Zm-38.306,9.7a6.659,6.659,0,0,0,1.274-.784c2.12-2.074,4.21-4.179,6.3-6.281a1.7,1.7,0,0,0,.2-2.55,1.683,1.683,0,0,0-2.546.185q-1.941,1.923-3.865,3.862c-.882.884-1.774,1.759-2.637,2.66a1.521,1.521,0,0,0-.3,1.8A1.977,1.977,0,0,0,4044.493,2478.208Zm56.325-26.756a2.7,2.7,0,0,0-.865.448q-3.4,3.335-6.736,6.731a1.6,1.6,0,0,0,.042,2.314,1.667,1.667,0,0,0,2.492-.169c1.683-1.666,3.352-3.345,5.025-5.02.515-.515,1.042-1.019,1.532-1.558a1.531,1.531,0,0,0,.267-1.81A1.7,1.7,0,0,0,4100.817,2451.452Z" fill="#2a6eb0"></path><path id="Path_319" data-name="Path 319" d="M4032.766,2607.5a2.4,2.4,0,0,1,1.539-1.316c2.418-.857,4.818-1.764,7.109-2.609l-7.541,7.554-1.107-2.691Z" transform="translate(0 -141.489)" fill="#9a81ff"></path><path id="Path_320" data-name="Path 320" d="M4261.568,2630.048a1.734,1.734,0,0,0,2.448.671q3.694-1.355,7.387-2.718a6.455,6.455,0,0,0,.649-.263,1.619,1.619,0,0,0,.872-2.083,1.6,1.6,0,0,0-2.091-.977c-1.838.646-3.661,1.334-5.491,2-.236.086-.477.158-.632.209l12.8-12.807c.595,1.637,1.21,3.337,1.829,5.037q1.748,4.8,3.5,9.592a1.714,1.714,0,0,1-1.166,2.523q-16.706,6.164-33.417,12.313a2.286,2.286,0,0,1-.284.074Z" transform="translate(-170.294 -149.807)" fill="#9a81ff"></path><path id="Path_321" data-name="Path 321" d="M4086.775,2753.466c-1.728.625-3.537,1.328-5.382,1.926-.84.272-1.6-.312-1.979-1.343q-1.681-4.609-3.346-9.224c-.405-1.117-.813-2.234-1.183-3.249Z" transform="translate(-33.329 -250.693)" fill="#9a81ff"></path></g></svg>