<svg xmlns="http://www.w3.org/2000/svg" width="65.633" height="71.927" viewBox="0 0 65.633 71.927"><g id="Group_277" data-name="Group 277" transform="translate(-3359.928 -1128.766)"><path id="Path_322" data-name="Path 322" d="M3399.8,1128.766a22.446,22.446,0,0,1,2.929,1.034,9.013,9.013,0,0,1,4.768,9.385l-5.884.365c0-.55.01-1.154,0-1.758a2.956,2.956,0,0,0-2.941-3.014c-.558-.017-1.117-.02-1.674.005a2.927,2.927,0,0,0-2.8,2.71c-.194,2.269-1.249,3.246-3.513,3.247q-6.976,0-13.951,0c-2.158,0-3.25-1.023-3.422-3.193a2.924,2.924,0,0,0-2.819-2.764c-.6-.026-1.21-.027-1.813,0a2.958,2.958,0,0,0-2.776,2.742c-.019.256-.01.515-.01.772q0,26.437,0,52.874c0,2.358,1.123,3.5,3.442,3.5,9.6,0,19.206-.036,28.809.027a3.18,3.18,0,0,0,3.477-3.5c-.042-.436-.006-.878-.006-1.286l5.887.344a9.031,9.031,0,0,1-8.719,10.413c-5.115.04-10.231.01-15.346.01q-7.15,0-14.3,0a8.987,8.987,0,0,1-9.207-9.274q-.01-26.683,0-53.365a8.987,8.987,0,0,1,7.536-9.16,1.051,1.051,0,0,0,.241-.117Z" fill="#2a6eb0"></path><path id="Path_323" data-name="Path 323" d="M3503.731,1236.012a19.49,19.49,0,1,1,19.458,19.52A19.551,19.551,0,0,1,3503.731,1236.012Zm17.216-8.9a5.845,5.845,0,0,0-3.5,7.063c.752,2.7,2.768,4.094,6,4.117a1.233,1.233,0,1,1,.015,2.465c-1.264.009-2.528-.006-3.792.005a2.271,2.271,0,0,0-2.447,2.24,2.3,2.3,0,0,0,2.384,2.247c.437.016.874,0,1.231,0a9.035,9.035,0,0,0,.449,1.629,2.207,2.207,0,0,0,2.517,1.073,2.308,2.308,0,0,0,1.669-2.183c.016-.389-.118-.765.439-1.023a5.816,5.816,0,0,0,2.279-8.576,5.511,5.511,0,0,0-5.226-2.384,1.1,1.1,0,0,1-1.241-1.248,1.111,1.111,0,0,1,1.227-1.207c1.264-.01,2.529.005,3.792-.006a2.253,2.253,0,1,0,.055-4.489c-.432-.013-.865,0-1.285,0-.145-1.879-.956-2.791-2.355-2.76C3521.737,1224.107,3521.051,1225.034,3520.946,1227.111Z" transform="translate(-117.149 -71.321)" fill="#9a81ff"></path></g></svg>