<svg xmlns="http://www.w3.org/2000/svg" width="77.629" height="61.324" viewBox="0 0 77.629 61.324"><g id="Group_392" data-name="Group 392" transform="translate(-24)"><path id="supervisor_account_FILL0_wght400_GRAD0_opsz48" d="M138.61,314.5a8.73,8.73,0,0,1-6.476-2.692,9.533,9.533,0,0,1,0-13.181,9.136,9.136,0,0,1,12.952,0,9.533,9.533,0,0,1,0,13.181A8.73,8.73,0,0,1,138.61,314.5Zm-19.019,21.824v-5.036a8.566,8.566,0,0,1,1.067-4.394,7.166,7.166,0,0,1,3.008-2.814,31.757,31.757,0,0,1,7.278-2.765,32.6,32.6,0,0,1,7.666-.889,34.433,34.433,0,0,1,7.666.839,27.948,27.948,0,0,1,7.278,2.814,6.5,6.5,0,0,1,3.008,2.765,8.839,8.839,0,0,1,1.067,4.444v5.036Zm-8.539-31.7a14.055,14.055,0,0,1-10.48-4.147,15.992,15.992,0,0,1,0-21.33,15.314,15.314,0,0,1,20.96,0,15.992,15.992,0,0,1,0,21.33A14.055,14.055,0,0,1,111.052,304.625ZM111.052,289.813ZM80,336.324v-9.283a11.985,11.985,0,0,1,1.65-6.172,10.557,10.557,0,0,1,4.917-4.3,73.013,73.013,0,0,1,12.5-4.444,49.477,49.477,0,0,1,11.959-1.481,46.31,46.31,0,0,1,5.556.3q2.426.3,5.24.889l-2.474,2.518-2.474,2.518a22.54,22.54,0,0,0-2.717-.247q-1.456-.049-3.105-.049a50.791,50.791,0,0,0-10.753,1.136,48.649,48.649,0,0,0-11.371,4.2,5.47,5.47,0,0,0-2.232,2.172,5.79,5.79,0,0,0-.873,2.962V330.4h27.947v5.925ZM113.769,330.4Zm-2.717-31.7a8.4,8.4,0,0,0,6.259-2.518,9.435,9.435,0,0,0,0-12.739,9.037,9.037,0,0,0-12.518,0,9.435,9.435,0,0,0,0,12.739A8.4,8.4,0,0,0,111.052,298.7Z" transform="translate(-56 -275)" fill="#2a6eb0"></path><path id="supervisor_account_FILL0_wght400_GRAD0_opsz48-2" data-name="supervisor_account_FILL0_wght400_GRAD0_opsz48" d="M111.052,304.625a14.055,14.055,0,0,1-10.48-4.147,15.992,15.992,0,0,1,0-21.33,15.314,15.314,0,0,1,20.96,0,15.992,15.992,0,0,1,0,21.33A14.055,14.055,0,0,1,111.052,304.625ZM111.052,289.813ZM80,336.324v-9.283a11.985,11.985,0,0,1,1.65-6.172,10.557,10.557,0,0,1,4.917-4.3,73.013,73.013,0,0,1,12.5-4.444,49.477,49.477,0,0,1,11.959-1.481,46.31,46.31,0,0,1,5.556.3q2.426.3,5.24.889l-2.474,2.518-2.474,2.518a22.54,22.54,0,0,0-2.717-.247q-1.456-.049-3.105-.049a50.791,50.791,0,0,0-10.753,1.136,48.649,48.649,0,0,0-11.371,4.2,5.47,5.47,0,0,0-2.232,2.172,5.79,5.79,0,0,0-.873,2.962V330.4h27.947v5.925ZM113.769,330.4Zm-2.717-31.7a8.4,8.4,0,0,0,6.259-2.518,9.435,9.435,0,0,0,0-12.739,9.037,9.037,0,0,0-12.518,0,9.435,9.435,0,0,0,0,12.739A8.4,8.4,0,0,0,111.052,298.7Z" transform="translate(-56 -275)" fill="#9a81ff"></path></g></svg>