<svg xmlns="http://www.w3.org/2000/svg" width="79.963" height="80" viewBox="0 0 79.963 80"><g id="Group_275" data-name="Group 275" transform="translate(-3200.057 -2665.659)"><path id="Path_324" data-name="Path 324" d="M3310.2,2732.479a57.945,57.945,0,0,1-4.1,20.434,45.391,45.391,0,0,1-17.682,20.761c-1.919,1.248-3.954,2.319-5.947,3.452a2.722,2.722,0,0,1-2.7.063A54.125,54.125,0,0,1,3264.4,2765.9a44.823,44.823,0,0,1-10.905-20.89,67.315,67.315,0,0,1-1.575-15.529,2.829,2.829,0,0,1,3.082-2.911,32.355,32.355,0,0,0,10.342-1.855,54.152,54.152,0,0,0,13.625-7.065c1.649-1.154,2.533-1.158,4.2.008a51.715,51.715,0,0,0,16.086,7.823,29.572,29.572,0,0,0,7.721,1.086,2.9,2.9,0,0,1,3.223,3.25C3310.193,2730.705,3310.2,2731.592,3310.2,2732.479Zm-29.132,27.4h5.559l.156,0a4.663,4.663,0,0,0,4.6-4.6q.055-5.127,0-10.255a4.275,4.275,0,0,0-2.017-3.692,1.529,1.529,0,0,1-.809-1.47c-.074-6.359-6.016-8.68-10.408-6.969a7.189,7.189,0,0,0-4.593,7.14,1.168,1.168,0,0,1-.62,1.175,4.457,4.457,0,0,0-2.208,3.986q-.023,4.931,0,9.864a4.685,4.685,0,0,0,4.859,4.823C3277.41,2759.887,3279.237,2759.879,3281.064,2759.878Z" transform="translate(-41.014 -40.432)" fill="#2a6eb0"></path><path id="Path_325" data-name="Path 325" d="M3236.511,2850.948c-3.685,2.01-6.829,1.626-8.964-1.1a6.306,6.306,0,0,1,8.463-9.125c2.817,1.864,3.485,5.006,1.791,8.867,1.3.842,2.59,1.768,3.96,2.546a37.847,37.847,0,0,0,43.067-3.557,38.182,38.182,0,0,0,13.1-37.9c-.029-.127-.052-.255-.074-.384-.1-.6.094-1.065.713-1.193a.9.9,0,0,1,1.118.827c.292,1.535.64,3.069.8,4.62a39.249,39.249,0,0,1-8.194,29.057,40,40,0,0,1-55.194,7.718c-.148-.107-.295-.215-.445-.319A.838.838,0,0,0,3236.511,2850.948Z" transform="translate(-20.699 -113.425)" fill="#9a81ff"></path><path id="Path_326" data-name="Path 326" d="M3261.094,2671.582c2.826-2.125,5.672-2.15,7.865-.07a5.609,5.609,0,0,1-6.212,9.161c-2.76-1.284-3.794-4-2.779-7.548-1.253-.658-2.508-1.39-3.82-2a38.132,38.132,0,0,0-53.669,41.089c.152.923-.074,1.37-.7,1.465s-1-.252-1.144-1.17a39.314,39.314,0,0,1,7.254-30.575,38.749,38.749,0,0,1,25.389-15.661,39.214,39.214,0,0,1,27.124,4.968c.18.1.361.208.544.305A.547.547,0,0,0,3261.094,2671.582Z" transform="translate(0)" fill="#9a81ff"></path><path id="Path_327" data-name="Path 327" d="M3364.417,2806.227a5.622,5.622,0,1,1,11.181,0Z" transform="translate(-129.962 -106.25)" fill="#2a6eb0"></path><path id="Path_328" data-name="Path 328" d="M3382.279,2863.26c-2.4,0-2.631-.28-2.167-2.653.12-.612.241-1.225.378-1.833a3.185,3.185,0,0,0-.1-2.331,1.83,1.83,0,0,1,.69-2.21,2.05,2.05,0,0,1,2.407,0,1.831,1.831,0,0,1,.681,2.212,3.129,3.129,0,0,0-.115,2.256c.184.838.348,1.68.521,2.521.306,1.486-.143,2.031-1.673,2.033Z" transform="translate(-142.24 -148.824)" fill="#2a6eb0"></path></g></svg>