<svg xmlns="http://www.w3.org/2000/svg" width="90.484" height="90.367" viewBox="0 0 90.484 90.367"><path id="design_services_FILL0_wght400_GRAD0_opsz48" d="M169.824,219.757l-18.1-18.1,8.173-8.173a7.05,7.05,0,0,1,9.807,0L178,201.777a7.05,7.05,0,0,1,0,9.807ZM96.152,275.331V257.118l22.65-22.65L93,208.549,113.315,188l26.036,26.036,12.376-12.376,18.1,18.1-12.376,12.376,26.036,26.036-20.432,20.2-25.919-25.8-22.767,22.767Zm27.671-45.884,10.508-10.508-8.523-8.523-5.6,5.6-4.9-4.9,5.6-5.6-7.472-7.472-10.508,10.508Zm39,39.112,10.508-10.508-7.472-7.472-5.6,5.6-4.9-4.9,5.6-5.6-8.523-8.523L141.92,247.661Zm-59.661-.234h8.173l48.453-48.453L151.61,211.7l-48.453,48.453Z" transform="translate(-93 -188)" fill="#2a6eb0"></path></svg>