<svg xmlns="http://www.w3.org/2000/svg" width="109.133" height="86.317" viewBox="0 0 109.133 86.317"><path id="devices_FILL0_wght400_GRAD0_opsz48" d="M80,342.317V330.179H91.732V264.092a7.748,7.748,0,0,1,2.4-5.715A7.927,7.927,0,0,1,99.917,256h84.578v8.092H99.917v66.087h31.921v12.138Zm65.343,0a4.76,4.76,0,0,1-3.791-1.821,6.225,6.225,0,0,1-1.53-4.114V277.444a5.059,5.059,0,0,1,1.53-3.748,5.178,5.178,0,0,1,3.791-1.512h37.071a8.011,8.011,0,0,1,4.672,1.416,4.44,4.44,0,0,1,2.046,3.844V336.42a5.317,5.317,0,0,1-1.978,4.2,7,7,0,0,1-4.706,1.7Zm2.865-12.138h32.74v-49.9h-32.74Z" transform="translate(-80 -256)" fill="#9a81ff"></path></svg>