<svg xmlns="http://www.w3.org/2000/svg" width="83.995" height="83.995" viewBox="0 0 83.995 83.995"><g id="Group_401" data-name="Group 401" transform="translate(-262 -995.505)"><path id="nest_clock_farsight_analog_FILL0_wght400_GRAD0_opsz48" d="M133.757,236.686l-8.4-8.4-6.51-6.51V201.2h6.3v17.954l13.019,13.019Zm-14.909-44.937V182.3h6.3v9.449Zm29.4,29.4v-6.3H157.7v6.3Zm-29.4,32.548v-9.449h6.3V253.7ZM86.3,221.147v-6.3h9.449v6.3ZM122.025,260a40.652,40.652,0,0,1-16.327-3.307,42.424,42.424,0,0,1-22.392-22.4,42.034,42.034,0,0,1,0-32.686,42.022,42.022,0,0,1,9.029-13.318,43.106,43.106,0,0,1,13.37-8.977,42.034,42.034,0,0,1,32.686,0,41.976,41.976,0,0,1,22.294,22.311,42.012,42.012,0,0,1,0,32.678,42.893,42.893,0,0,1-8.977,13.343,42.4,42.4,0,0,1-13.334,9.029A40.622,40.622,0,0,1,122.025,260Zm.025-6.3a35.8,35.8,0,0,0,25.271-61A34.42,34.42,0,0,0,122,182.3a35.71,35.71,0,0,0-25.251,60.949A34.463,34.463,0,0,0,122.05,253.7ZM122,218Z" transform="translate(182 819.505)" fill="#9a81ff"></path></g></svg>