<svg xmlns="http://www.w3.org/2000/svg" width="80.655" height="79.999" viewBox="0 0 80.655 79.999"><g id="Group_397" data-name="Group 397" transform="translate(-617.082 -1000)"><path id="vpn_lock_FILL0_wght400_GRAD0_opsz48" d="M117.564,202a37.232,37.232,0,0,1-14.707-2.9,37.752,37.752,0,0,1-11.944-7.962,36.817,36.817,0,0,1-8.009-11.9,37.545,37.545,0,0,1,19.625-49.273,35.523,35.523,0,0,1,14.286-2.9,46.837,46.837,0,0,1,8.524.8,29.26,29.26,0,0,1,6.557,1.827v6.745a8.5,8.5,0,0,1-8.15,8.15H113.068v7.494a4.318,4.318,0,0,1-4.309,4.309h-7.494v8.15h23.7a4.32,4.32,0,0,1,4.4,4.4v11.9h3.747a8.116,8.116,0,0,1,4.824,1.5,7.373,7.373,0,0,1,2.857,3.934A34.614,34.614,0,0,0,147.165,176a30.113,30.113,0,0,0,2.155-11.1q0-1.405-.094-3.419a31.964,31.964,0,0,0-.281-3.232h5.621a20.276,20.276,0,0,1,.281,2.717q.094,1.78.094,3.466a37.572,37.572,0,0,1-2.9,14.754A37.027,37.027,0,0,1,117.564,202Zm-4.5-5.152v-8.524a7.516,7.516,0,0,1-7.494-7.494v-3.747l-19.3-19.3q-.375,2.155-.515,3.513a28.779,28.779,0,0,0-.141,2.951A32.553,32.553,0,0,0,93.4,185.98,30.6,30.6,0,0,0,113.068,196.847Zm27.26-44.215a2.723,2.723,0,0,1-2.81-2.81V136.145a2.723,2.723,0,0,1,2.81-2.81h1.5v-3.747a7.542,7.542,0,0,1,2.108-5.339,6.921,6.921,0,0,1,10.211,0,7.542,7.542,0,0,1,2.108,5.339v3.747h1.592a2.723,2.723,0,0,1,2.81,2.81v13.677a2.723,2.723,0,0,1-2.81,2.81Zm4.684-19.3h8.056v-3.747a4.6,4.6,0,0,0-1.124-3.091,3.871,3.871,0,0,0-5.808,0,4.6,4.6,0,0,0-1.124,3.091Z" transform="translate(537.082 878)" fill="#9a81ff"></path><path id="vpn_lock_FILL0_wght400_GRAD0_opsz48-2" data-name="vpn_lock_FILL0_wght400_GRAD0_opsz48" d="M102.857,199.1a37.752,37.752,0,0,1-11.944-7.962,36.817,36.817,0,0,1-8.009-11.9,37.545,37.545,0,0,1,19.625-49.273,35.523,35.523,0,0,1,14.286-2.9,46.837,46.837,0,0,1,8.524.8,29.26,29.26,0,0,1,6.557,1.827v6.745a8.5,8.5,0,0,1-8.15,8.15H113.068v7.494a4.318,4.318,0,0,1-4.309,4.309h-7.494v8.15h23.7a4.32,4.32,0,0,1,4.4,4.4v11.9h3.747a8.116,8.116,0,0,1,4.824,1.5,7.373,7.373,0,0,1,2.857,3.934A34.614,34.614,0,0,0,147.165,176a30.113,30.113,0,0,0,2.155-11.1q0-1.405-.094-3.419a31.964,31.964,0,0,0-.281-3.232h5.621a20.276,20.276,0,0,1,.281,2.717q.094,1.78.094,3.466a37.572,37.572,0,0,1-2.9,14.754A36.833,36.833,0,0,1,132.224,199.1C127.7,201.031,107.416,201.031,102.857,199.1Zm10.211-2.248v-8.524a7.516,7.516,0,0,1-7.494-7.494v-3.747l-19.3-19.3q-.375,2.155-.515,3.513a28.779,28.779,0,0,0-.141,2.951A32.553,32.553,0,0,0,93.4,185.98,30.6,30.6,0,0,0,113.068,196.847Z" transform="translate(537.082 878)" fill="#2a6eb0"></path></g></svg>