<svg xmlns="http://www.w3.org/2000/svg" width="74.947" height="80" viewBox="0 0 74.947 80"><g id="Group_403" data-name="Group 403" transform="translate(-608.145 -999.5)"><path id="add_shopping_cart_FILL0_wght400_GRAD0_opsz48" d="M100.427,166.178V154.449H88.6v-5.721h11.824V137h5.721v11.728h11.728v5.721H106.148v11.728ZM83.72,217a6.564,6.564,0,0,1-4.843-2.023,6.664,6.664,0,0,1-2-4.863,6.564,6.564,0,0,1,2.023-4.843,6.664,6.664,0,0,1,4.863-2,6.564,6.564,0,0,1,4.843,2.023,6.664,6.664,0,0,1,2,4.863A6.564,6.564,0,0,1,88.583,215,6.664,6.664,0,0,1,83.72,217Zm38.522,0a6.564,6.564,0,0,1-4.843-2.023,6.664,6.664,0,0,1-2-4.863,6.564,6.564,0,0,1,2.023-4.843,6.664,6.664,0,0,1,4.863-2,6.564,6.564,0,0,1,4.843,2.023,6.664,6.664,0,0,1,2,4.863A6.564,6.564,0,0,1,127.1,215a6.664,6.664,0,0,1-4.863,2Zm-38.5-19.738a6.5,6.5,0,0,1-5.816-9.821l5.816-10.584-14.3-30.417H62v-5.721H73.061l16.21,34.708h27.843l14.875-26.7,4.958,2.67L122.358,177.81A6.525,6.525,0,0,1,120,180.274a6.619,6.619,0,0,1-3.463.874H87.936l-5.912,10.393h47.1v5.721Z" transform="translate(546.145 862.5)" fill="#9a81ff"></path><path id="add_shopping_cart_FILL0_wght400_GRAD0_opsz48-2" data-name="add_shopping_cart_FILL0_wght400_GRAD0_opsz48" d="M83.72,217a6.564,6.564,0,0,1-4.843-2.023,6.664,6.664,0,0,1-2-4.863,6.564,6.564,0,0,1,2.023-4.843,6.664,6.664,0,0,1,4.863-2,6.564,6.564,0,0,1,4.843,2.023,6.664,6.664,0,0,1,2,4.863A6.564,6.564,0,0,1,88.583,215,6.664,6.664,0,0,1,83.72,217Zm38.522,0a6.564,6.564,0,0,1-4.843-2.023,6.664,6.664,0,0,1-2-4.863,6.564,6.564,0,0,1,2.023-4.843,6.664,6.664,0,0,1,4.863-2,6.564,6.564,0,0,1,4.843,2.023,6.664,6.664,0,0,1,2,4.863A6.564,6.564,0,0,1,127.1,215a6.664,6.664,0,0,1-4.863,2Zm-38.5-19.738a6.5,6.5,0,0,1-5.816-9.821l5.816-10.584-14.3-30.417H62v-5.721H73.061l16.21,34.708h27.843l14.875-26.7,4.958,2.67L122.358,177.81A6.525,6.525,0,0,1,120,180.274a6.619,6.619,0,0,1-3.463.874H87.936l-5.912,10.393h47.1v5.721Z" transform="translate(546.145 862.5)" fill="#2a6eb0"></path></g></svg>