<svg xmlns="http://www.w3.org/2000/svg" width="86.277" height="86.277" viewBox="0 0 86.277 86.277"><g id="Group_400" data-name="Group 400" transform="translate(-1358 -993.223)"><path id="point_of_sale_FILL0_wght400_GRAD0_opsz48" d="M99.412,202.962a6.49,6.49,0,0,1-6.471-6.471v-14.02A6.49,6.49,0,0,1,99.412,176h47.453a6.49,6.49,0,0,1,6.471,6.471v14.02a6.49,6.49,0,0,1-6.471,6.471Zm0-6.471h47.453v-14.02H99.412ZM86.471,262.277A6.49,6.49,0,0,1,80,255.807v-7.549h86.277v7.549a6.49,6.49,0,0,1-6.471,6.471ZM80,245.022,95.638,210.08a7.3,7.3,0,0,1,2.438-2.8,5.88,5.88,0,0,1,3.386-1.078h43.354a5.88,5.88,0,0,1,3.386,1.078,7.3,7.3,0,0,1,2.438,2.8l15.638,34.942Zm28.04-8.628h4.314a2.157,2.157,0,0,0,0-4.314H108.04a2.157,2.157,0,0,0,0,4.314Zm0-8.628h4.314a2.157,2.157,0,0,0,0-4.314H108.04a2.157,2.157,0,0,0,0,4.314Zm0-8.628h4.314a2.157,2.157,0,0,0,0-4.314H108.04a2.157,2.157,0,0,0,0,4.314Zm12.942,17.255H125.3a2.157,2.157,0,0,0,0-4.314h-4.314a2.157,2.157,0,0,0,0,4.314Zm0-8.628H125.3a2.157,2.157,0,0,0,0-4.314h-4.314a2.157,2.157,0,0,0,0,4.314Zm0-8.628H125.3a2.157,2.157,0,0,0,0-4.314h-4.314a2.157,2.157,0,0,0,0,4.314Zm12.942,17.255h4.314a2.157,2.157,0,0,0,0-4.314h-4.314a2.157,2.157,0,0,0,0,4.314Zm0-8.628h4.314a2.157,2.157,0,0,0,0-4.314h-4.314a2.157,2.157,0,0,0,0,4.314Zm0-8.628h4.314a2.157,2.157,0,0,0,0-4.314h-4.314a2.157,2.157,0,0,0,0,4.314Z" transform="translate(1278 817.223)" fill="#9a81ff"></path><path id="point_of_sale_FILL0_wght400_GRAD0_opsz48-2" data-name="point_of_sale_FILL0_wght400_GRAD0_opsz48" d="M99.412,202.962ZM86.471,262.277A6.49,6.49,0,0,1,80,255.807v-7.549h86.277v7.549a6.49,6.49,0,0,1-6.471,6.471ZM80,245.022,95.638,210.08a7.3,7.3,0,0,1,2.438-2.8,5.88,5.88,0,0,1,3.386-1.078h43.354a5.88,5.88,0,0,1,3.386,1.078,7.3,7.3,0,0,1,2.438,2.8l15.638,34.942Zm28.04-8.628h4.314a2.157,2.157,0,0,0,0-4.314H108.04a2.157,2.157,0,0,0,0,4.314Zm0-8.628h4.314a2.157,2.157,0,0,0,0-4.314H108.04a2.157,2.157,0,0,0,0,4.314Zm0-8.628h4.314a2.157,2.157,0,0,0,0-4.314H108.04a2.157,2.157,0,0,0,0,4.314Zm12.942,17.255H125.3a2.157,2.157,0,0,0,0-4.314h-4.314a2.157,2.157,0,0,0,0,4.314Zm0-8.628H125.3a2.157,2.157,0,0,0,0-4.314h-4.314a2.157,2.157,0,0,0,0,4.314Zm0-8.628H125.3a2.157,2.157,0,0,0,0-4.314h-4.314a2.157,2.157,0,0,0,0,4.314Zm12.942,17.255h4.314a2.157,2.157,0,0,0,0-4.314h-4.314a2.157,2.157,0,0,0,0,4.314Zm0-8.628h4.314a2.157,2.157,0,0,0,0-4.314h-4.314a2.157,2.157,0,0,0,0,4.314Zm0-8.628h4.314a2.157,2.157,0,0,0,0-4.314h-4.314a2.157,2.157,0,0,0,0,4.314Z" transform="translate(1278 817.223)" fill="#2a6eb0"></path></g></svg>