<svg xmlns="http://www.w3.org/2000/svg" width="83.81" height="80" viewBox="0 0 83.81 80"><g id="Group_406" data-name="Group 406" transform="translate(-1373 -999.5)"><path id="query_stats_FILL0_wght400_GRAD0_opsz48" d="M44.667,236.1,40,232.667,57.9,204.1l11.388,13.333,15.184-24.571,10.381,15.429a18.044,18.044,0,0,0-2.952.619q-1.429.429-2.857,1l-4.286-6.571L70.233,227.048,58.667,213.619ZM119.714,256l-12.762-12.762a15.908,15.908,0,0,1-4.333,2.19,15.4,15.4,0,0,1-4.81.762A16.224,16.224,0,1,1,114,230a14.571,14.571,0,0,1-.81,4.81,22.144,22.144,0,0,1-2.143,4.471L123.81,251.9ZM97.8,240.476a10.384,10.384,0,1,0-7.429-3.048A10.147,10.147,0,0,0,97.8,240.476Zm7.061-31.238a11.888,11.888,0,0,0-2.952-.762q-1.524-.19-3.143-.381L119.143,176l4.667,3.429-10.684,16.805Z" transform="translate(1333 823.5)" fill="#9a81ff"></path><path id="query_stats_FILL0_wght400_GRAD0_opsz48-2" data-name="query_stats_FILL0_wght400_GRAD0_opsz48" d="M44.667,236.1,40,232.667,57.9,204.1l11.388,13.333,15.184-24.571,10.381,15.429a18.044,18.044,0,0,0-2.952.619q-1.429.429-2.857,1l-4.286-6.571L70.233,227.048,58.667,213.619Zm60.19-26.857a11.888,11.888,0,0,0-2.952-.762q-1.524-.19-3.143-.381L119.143,176l4.667,3.429Z" transform="translate(1333 823.5)" fill="#2a6eb0"></path></g></svg>