<svg xmlns="http://www.w3.org/2000/svg" width="80.001" height="83.729" viewBox="0 0 80.001 83.729"><g id="Group_418" data-name="Group 418" transform="translate(-620.998 -996.271)"><path id="assured_workload_FILL0_wght400_GRAD0_opsz48" d="M92,196.819V166h5.455v30.819Zm22,0V166h5.455v30.819ZM80,160.546v-4.818L116.364,135l36.364,20.728v4.818Zm12.182-5.455h48.364l-24.182-13.818ZM80,207.728v-5.455h45.455q.182,1.273.318,2.591a12.555,12.555,0,0,0,.682,2.864Zm55.273-26.455V166h5.455v12.546Zm10.182,37.455a17.962,17.962,0,0,1-10.409-7.227,20.9,20.9,0,0,1-4.136-12.591v-9.273l14.546-7.273L160,189.637v9.273a20.9,20.9,0,0,1-4.136,12.591A17.962,17.962,0,0,1,145.455,218.728Zm-1.909-10.909,12.909-12.909-2.545-2.545-10.364,10.364-5.364-5.364-2.545,2.545ZM92.182,155.091h0Z" transform="translate(540.998 861.272)" fill="#9a81ff"></path><path id="assured_workload_FILL0_wght400_GRAD0_opsz48-2" data-name="assured_workload_FILL0_wght400_GRAD0_opsz48" d="M92,196.819V166h5.455v30.819Zm22,0V166h5.455v30.819ZM80,160.546v-4.818L116.364,135l36.364,20.728v4.818Zm12.182-5.455h48.364l-24.182-13.818ZM80,207.728v-5.455h45.455q.182,1.273.318,2.591a12.555,12.555,0,0,0,.682,2.864Zm55.273-26.455V166h5.455v12.546ZM92.182,155.091h0Z" transform="translate(540.998 861.271)" fill="#2a6eb0"></path></g></svg>