<svg xmlns="http://www.w3.org/2000/svg" width="89.369" height="80" viewBox="0 0 89.369 80"><g id="Group_417" data-name="Group 417" transform="translate(-259.073 -1000)"><g id="Group_416" data-name="Group 416"><path id="credit_score_FILL0_wght400_GRAD0_opsz48" d="M86.667,273.778h75.556V262.667H86.667ZM80,262.667A6.835,6.835,0,0,1,86.667,256h75.556a6.835,6.835,0,0,1,6.667,6.667v26.555H86.667v31.222h25.889v6.667H86.667A6.835,6.835,0,0,1,80,320.444ZM137.556,336l-18.889-18.889,4.778-4.778,14.111,14.111,26.667-26.667,4.667,4.889ZM86.667,262.667v0Z" transform="translate(179.553 744)" fill="#9a81ff"></path></g><path id="credit_score_FILL0_wght400_GRAD0_opsz48-2" data-name="credit_score_FILL0_wght400_GRAD0_opsz48" d="M86.667,273.778h75.556V262.667H86.667ZM80,262.667A6.835,6.835,0,0,1,86.667,256h75.556a6.835,6.835,0,0,1,6.667,6.667v26.555H86.667v31.222h25.889v6.667H86.667A6.835,6.835,0,0,1,80,320.444Zm6.667,0v0Z" transform="translate(179.073 744)" fill="#2a6eb0"></path></g></svg>