<svg xmlns="http://www.w3.org/2000/svg" width="83.009" height="83.009" viewBox="0 0 83.009 83.009"><g id="Group_420" data-name="Group 420" transform="translate(-983.512 -996.99)"><g id="Group_419" data-name="Group 419"><path id="currency_exchange_FILL0_wght400_GRAD0_opsz48" d="M81.5,219.009a37.5,37.5,0,0,1-20.375-6.226A53.953,53.953,0,0,1,45.66,198.54v12.923H40V188.824H62.639v5.66H49.716a46.537,46.537,0,0,0,13.725,13.064q8.914,5.8,18.064,5.8a34.732,34.732,0,0,0,13.913-2.83,35.939,35.939,0,0,0,19.1-19.1,34.732,34.732,0,0,0,2.83-13.913h5.66a40.294,40.294,0,0,1-3.254,16.13,41.823,41.823,0,0,1-22.12,22.12A40.294,40.294,0,0,1,81.5,219.009Zm-2.736-14.432v-5.094a17.575,17.575,0,0,1-7.122-3.632,19.752,19.752,0,0,1-4.858-6.839l4.811-1.6a10.758,10.758,0,0,0,4.009,5.66,10.924,10.924,0,0,0,6.556,2.075,10.3,10.3,0,0,0,6.273-1.839,5.748,5.748,0,0,0,2.5-4.858,6.766,6.766,0,0,0-2.358-5.235q-2.358-2.122-8.678-4.764a27.419,27.419,0,0,1-8.49-5.094,10.613,10.613,0,0,1,0-14.432,12.561,12.561,0,0,1,7.546-3.584v-4.811h5.188v4.811a12.813,12.813,0,0,1,6.226,2.264,13.422,13.422,0,0,1,4.245,5.188l-4.528,2.17A10.33,10.33,0,0,0,86.6,161a8.94,8.94,0,0,0-4.905-1.321,9.039,9.039,0,0,0-5.8,1.7A5.6,5.6,0,0,0,73.769,166a5.66,5.66,0,0,0,2.453,4.811,40.484,40.484,0,0,0,7.924,4.056q6.509,2.736,9.244,5.754a11.21,11.21,0,0,1,2.736,7.829,10.9,10.9,0,0,1-.849,4.339,9.686,9.686,0,0,1-2.405,3.4,12.389,12.389,0,0,1-3.82,2.311,18.914,18.914,0,0,1-5.094,1.179v4.905ZM40,177.5a40.294,40.294,0,0,1,3.254-16.13,41.824,41.824,0,0,1,22.12-22.12A40.294,40.294,0,0,1,81.5,136a37.5,37.5,0,0,1,20.375,6.226,53.953,53.953,0,0,1,15.47,14.244V143.546h5.66v22.639H100.37v-5.66h12.923a46.72,46.72,0,0,0-13.678-13.064,32.726,32.726,0,0,0-18.111-5.8,34.732,34.732,0,0,0-13.913,2.83,35.939,35.939,0,0,0-19.1,19.1A34.732,34.732,0,0,0,45.66,177.5Z" transform="translate(943.512 860.99)" fill="#9a81ff"></path></g><path id="currency_exchange_FILL0_wght400_GRAD0_opsz48-2" data-name="currency_exchange_FILL0_wght400_GRAD0_opsz48" d="M81.5,219.009a37.5,37.5,0,0,1-20.375-6.226A53.953,53.953,0,0,1,45.66,198.54v12.923H40V188.824H62.639v5.66H49.716a46.537,46.537,0,0,0,13.725,13.064q8.914,5.8,18.064,5.8a34.732,34.732,0,0,0,13.913-2.83,35.939,35.939,0,0,0,19.1-19.1,34.732,34.732,0,0,0,2.83-13.913h5.66a40.294,40.294,0,0,1-3.254,16.13,41.823,41.823,0,0,1-22.12,22.12A40.294,40.294,0,0,1,81.5,219.009ZM40,177.5a40.294,40.294,0,0,1,3.254-16.13,41.824,41.824,0,0,1,22.12-22.12A40.294,40.294,0,0,1,81.5,136a37.5,37.5,0,0,1,20.375,6.226,53.953,53.953,0,0,1,15.47,14.244V143.546h5.66v22.639H100.37v-5.66h12.923a46.72,46.72,0,0,0-13.678-13.064,32.726,32.726,0,0,0-18.111-5.8,34.732,34.732,0,0,0-13.913,2.83,35.939,35.939,0,0,0-19.1,19.1A34.732,34.732,0,0,0,45.66,177.5Z" transform="translate(943.512 860.99)" fill="#2a6eb0"></path></g></svg>