<svg xmlns="http://www.w3.org/2000/svg" width="80.5" height="80.5" viewBox="0 0 80.5 80.5"><g id="Group_405" data-name="Group 405" transform="translate(-985 -1000)"><path d="M119.847,256.5a38.774,38.774,0,0,1-15.492-3.119,40.066,40.066,0,0,1-21.236-21.236A38.774,38.774,0,0,1,80,216.653a39.513,39.513,0,0,1,3.17-15.766,41.712,41.712,0,0,1,8.6-12.907,40.614,40.614,0,0,1,12.779-8.754,39.812,39.812,0,0,1,31.395,0,40.614,40.614,0,0,1,12.779,8.754,41.711,41.711,0,0,1,8.6,12.907,39.513,39.513,0,0,1,3.17,15.766v31.6a8.276,8.276,0,0,1-8.251,8.251Zm0-6.541A33.6,33.6,0,0,0,144,240.28a31.535,31.535,0,0,0,10.063-23.627,33.868,33.868,0,0,0-9.826-24.5,32.167,32.167,0,0,0-23.984-10.113,32.71,32.71,0,0,0-24.3,10.113,33.715,33.715,0,0,0-9.912,24.5,32.517,32.517,0,0,0,.5,5.745,35.919,35.919,0,0,0,1.409,5.425l16.3-16.3,13.283,11.27,15.5-15.6h-7.748v-6.038h18.113v18.113h-6.038v-7.748l-19.521,19.421-13.282-11.27L90.666,233.558a33.668,33.668,0,0,0,29.181,16.4Zm32.452,1.207a2.791,2.791,0,0,0,2.113-.906,3.041,3.041,0,0,0,.855-2.163,2.791,2.791,0,0,0-.906-2.113,3.022,3.022,0,0,0-4.226.013,2.859,2.859,0,0,0-.906,2.151,2.9,2.9,0,0,0,.906,2.113A2.953,2.953,0,0,0,152.3,251.167ZM118.741,215.948Z" transform="translate(905 824)" fill="#9a81ff"></path><path d="M104.356,253.381a40.066,40.066,0,0,1-21.236-21.236A38.774,38.774,0,0,1,80,216.653a39.513,39.513,0,0,1,3.17-15.766,41.712,41.712,0,0,1,8.6-12.907,40.614,40.614,0,0,1,12.779-8.754,39.812,39.812,0,0,1,31.395,0,40.614,40.614,0,0,1,12.779,8.754,41.711,41.711,0,0,1,8.6,12.907,39.513,39.513,0,0,1,3.17,15.766v31.6a8.276,8.276,0,0,1-8.251,8.251S109.189,255.46,104.356,253.381Zm15.492-3.421A33.6,33.6,0,0,0,144,240.28a31.535,31.535,0,0,0,10.063-23.627,33.868,33.868,0,0,0-9.826-24.5,32.167,32.167,0,0,0-23.984-10.113,32.71,32.71,0,0,0-24.3,10.113,33.715,33.715,0,0,0-9.912,24.5,32.517,32.517,0,0,0,.5,5.745,35.919,35.919,0,0,0,1.409,5.425l1.186,3.1,1.531,2.635a33.668,33.668,0,0,0,29.181,16.4Zm32.452,1.207a2.791,2.791,0,0,0,2.113-.906,3.041,3.041,0,0,0,.855-2.163,2.791,2.791,0,0,0-.906-2.113,3.022,3.022,0,0,0-4.226.013,2.859,2.859,0,0,0-.906,2.151,2.9,2.9,0,0,0,.906,2.113A2.953,2.953,0,0,0,152.3,251.167Z" transform="translate(905 824)" fill="#2a6eb0"></path></g></svg>