<svg xmlns="http://www.w3.org/2000/svg" width="78" height="82.588" viewBox="0 0 78 82.588"><g id="Group_414" data-name="Group 414" transform="translate(-617.222 -996.912)"><path id="price_check_FILL0_wght400_GRAD0_opsz48" d="M172.618,269.059V263.9H160v-6.882h25.235V244.971H163.556a3.493,3.493,0,0,1-2.466-1.032,3.343,3.343,0,0,1-1.09-2.524V222.6a3.247,3.247,0,0,1,1.032-2.466,3.4,3.4,0,0,1,2.409-.975h9.176V214H179.5v5.162h12.618v6.882H166.882v12.044h21.679a3.538,3.538,0,0,1,2.524.975,3.384,3.384,0,0,1,1.032,2.581v18.812a3.4,3.4,0,0,1-.975,2.409,3.247,3.247,0,0,1-2.466,1.032H179.5v5.162Zm33.035,27.529-19.5-19.5,4.818-4.818,14.682,14.682,27.529-27.529L238,264.241Z" transform="translate(457.222 782.912)" fill="#9a81ff"></path><g id="Group_412" data-name="Group 412"><g id="Group_410" data-name="Group 410"><g id="Group_409" data-name="Group 409"><g id="Group_408" data-name="Group 408"><path id="price_check_FILL0_wght400_GRAD0_opsz48-2" data-name="price_check_FILL0_wght400_GRAD0_opsz48" d="M172.618,269.059V263.9H160v-6.882h25.235V244.971H163.556a3.493,3.493,0,0,1-2.466-1.032,3.343,3.343,0,0,1-1.09-2.524V222.6a3.247,3.247,0,0,1,1.032-2.466,3.4,3.4,0,0,1,2.409-.975h9.176V214H179.5v5.162h12.618v6.882H166.882v12.044h21.679a3.538,3.538,0,0,1,2.524.975,3.384,3.384,0,0,1,1.032,2.581v18.812a3.4,3.4,0,0,1-.975,2.409,3.247,3.247,0,0,1-2.466,1.032H179.5v5.162Z" transform="translate(457.222 782.912)" fill="#2a6eb0"></path></g></g></g></g></g></svg>