<svg xmlns="http://www.w3.org/2000/svg" width="70.953" height="78.186" viewBox="0 0 70.953 78.186"><g id="Group_413" data-name="Group 413" transform="translate(-1358 -1000)"><path id="receipt_long_FILL0_wght400_GRAD0_opsz48" d="M127.262,254.186A10.219,10.219,0,0,1,117,243.924V231.707h12.412V176l5.844,5.864L141.1,176l5.844,5.864L152.789,176l5.844,5.864L164.5,176l5.864,5.864L176.226,176l5.864,5.864L187.953,176v67.924a10.219,10.219,0,0,1-10.262,10.262Zm50.43-5.864a4.19,4.19,0,0,0,4.4-4.4V185.773H135.276v45.934h38.018v12.216a4.19,4.19,0,0,0,4.4,4.4Zm-37.236-47.107v-5.864h23.456v5.864Zm0,13.1v-5.864h23.456v5.864ZM173,201.215a3.006,3.006,0,1,1,2.052-.88A2.813,2.813,0,0,1,173,201.215Zm0,12.607a3.006,3.006,0,1,1,2.052-.88A2.813,2.813,0,0,1,173,213.822Zm-45.836,34.5H167.43v-10.75H122.864v6.353A4.269,4.269,0,0,0,124.1,247.1,4.187,4.187,0,0,0,127.164,248.322Zm-4.3,0v0Z" transform="translate(1241 824)" fill="#2a6eb0"></path><path id="receipt_long_FILL0_wght400_GRAD0_opsz48-2" data-name="receipt_long_FILL0_wght400_GRAD0_opsz48" d="M140.456,201.215v-5.864h23.456v5.864Zm0,13.1v-5.864h23.456v5.864ZM173,201.215a3.006,3.006,0,1,1,2.052-.88A2.813,2.813,0,0,1,173,201.215Zm0,12.607a3.006,3.006,0,1,1,2.052-.88A2.813,2.813,0,0,1,173,213.822Z" transform="translate(1241 824)" fill="#9a81ff"></path></g></svg>