<svg xmlns="http://www.w3.org/2000/svg" width="72.616" height="80" viewBox="0 0 72.616 80"><g id="Group_395" data-name="Group 395" transform="translate(-1373 -999.5)"><path id="loyalty_FILL0_wght400_GRAD0_opsz48" d="M120.2,237.723l12.676-13.983a6.873,6.873,0,0,0,1.449-2.447,8.883,8.883,0,0,0,.453-2.846A7.816,7.816,0,0,0,132.742,213a6.42,6.42,0,0,0-4.935-2.247,6.19,6.19,0,0,0-3.622,1.3,19.784,19.784,0,0,0-3.984,4.195,19.784,19.784,0,0,0-3.984-4.195,6.19,6.19,0,0,0-3.622-1.3A6.42,6.42,0,0,0,107.661,213a7.816,7.816,0,0,0-2.037,5.443,8.883,8.883,0,0,0,.453,2.846,6.872,6.872,0,0,0,1.449,2.447ZM123.37,254.2a5.213,5.213,0,0,1-7.877,0L81.539,216.749a5.334,5.334,0,0,1-1.222-2.1,8.247,8.247,0,0,1-.317-2.3V181.992a6.151,6.151,0,0,1,1.539-4.295,5.028,5.028,0,0,1,3.893-1.7h27.525a7.06,7.06,0,0,1,2.173.35,4.6,4.6,0,0,1,1.992,1.348L150.9,214.951a6.6,6.6,0,0,1,0,8.889Zm-3.712-4.095,27.525-30.362-34.226-37.753H85.433v30.362ZM94.94,197.573a4.327,4.327,0,0,0,3.3-1.548,5.436,5.436,0,0,0,0-7.291,4.3,4.3,0,0,0-6.61,0,5.436,5.436,0,0,0,0,7.291A4.327,4.327,0,0,0,94.94,197.573ZM85.433,181.992Z" transform="translate(1293 823.5)" fill="#2a6eb0"></path><path id="loyalty_FILL0_wght400_GRAD0_opsz48-2" data-name="loyalty_FILL0_wght400_GRAD0_opsz48" d="M120.2,237.723l12.676-13.983a6.873,6.873,0,0,0,1.449-2.447,8.883,8.883,0,0,0,.453-2.846A7.816,7.816,0,0,0,132.742,213a6.42,6.42,0,0,0-4.935-2.247,6.19,6.19,0,0,0-3.622,1.3,19.784,19.784,0,0,0-3.984,4.195,19.784,19.784,0,0,0-3.984-4.195,6.19,6.19,0,0,0-3.622-1.3A6.42,6.42,0,0,0,107.661,213a7.816,7.816,0,0,0-2.037,5.443,8.883,8.883,0,0,0,.453,2.846,6.872,6.872,0,0,0,1.449,2.447ZM94.94,197.573a4.327,4.327,0,0,0,3.3-1.548,5.436,5.436,0,0,0,0-7.291,4.3,4.3,0,0,0-6.61,0,5.436,5.436,0,0,0,0,7.291A4.327,4.327,0,0,0,94.94,197.573Z" transform="translate(1293 823.5)" fill="#9a81ff"></path></g></svg>