<svg xmlns="http://www.w3.org/2000/svg" width="88.442" height="81.974" viewBox="0 0 88.442 81.974"><g id="Group_404" data-name="Group 404" transform="translate(-249 -1000.997)"><path id="table_chart_view_FILL0_wght400_GRAD0_opsz48" d="M102.164,277.974,97.71,273.52l28.526-28.632,14.846,14.846,22.906-22.8,4.454,4.454-27.36,27.36L126.236,253.9Zm-15.8-3.5A6.524,6.524,0,0,1,80,268.111V202.363A6.524,6.524,0,0,1,86.363,196H149.99a6.524,6.524,0,0,1,6.363,6.363v21H86.363Zm0-57.477H149.99V202.363H86.363Zm0,0v0Z" transform="translate(169 804.997)" fill="#9a81ff"></path><path id="table_chart_view_FILL0_wght400_GRAD0_opsz48-2" data-name="table_chart_view_FILL0_wght400_GRAD0_opsz48" d="M86.363,274.474A6.524,6.524,0,0,1,80,268.111V202.363A6.524,6.524,0,0,1,86.363,196H149.99a6.524,6.524,0,0,1,6.363,6.363v21H86.363Zm0-57.477H149.99V202.363H86.363Zm0,0v0Z" transform="translate(169 804.997)" fill="#2a6eb0"></path></g></svg>