<svg xmlns="http://www.w3.org/2000/svg" width="97.778" height="80" viewBox="0 0 97.778 80"><g id="Group_407" data-name="Group 407" transform="translate(-254.222 -1000)"><path id="add_card_FILL0_wght400_GRAD0_opsz48" d="M86.667,327.111A6.835,6.835,0,0,1,80,320.444V262.667A6.835,6.835,0,0,1,86.667,256h75.556a6.835,6.835,0,0,1,6.667,6.667v26.556H86.667v31.222H131v6.667Zm0-53.333h75.556V262.667H86.667ZM157.778,336V322.667H144.444V316h13.333V302.667h6.667V316h13.333v6.667H164.444V336ZM86.667,320.444v0Z" transform="translate(174.222 744)" fill="#9a81ff"></path><path id="add_card_FILL0_wght400_GRAD0_opsz48-2" data-name="add_card_FILL0_wght400_GRAD0_opsz48" d="M82,325.111a6.4,6.4,0,0,1-2-4.667V262.667A6.835,6.835,0,0,1,86.667,256h75.556a6.835,6.835,0,0,1,6.667,6.667v26.556H86.667v31.222H131v6.667S83.333,326.444,82,325.111Zm4.667-51.333h75.556V262.667H86.667Zm0,46.667v0Z" transform="translate(174.222 744)" fill="#2a6eb0"></path></g></svg>