<svg xmlns="http://www.w3.org/2000/svg" width="98.526" height="80.5" viewBox="0 0 98.526 80.5"><path id="heart_plus_FILL0_wght400_GRAD0_opsz48" d="M84.784,254.4Zm0,42.1L73.7,286.312q-9.741-8.957-16.178-15.339a113.582,113.582,0,0,1-10.356-11.532,36.924,36.924,0,0,1-5.542-9.685A28.517,28.517,0,0,1,40,240.072,23.627,23.627,0,0,1,46.774,223a22.369,22.369,0,0,1,16.738-7,24.238,24.238,0,0,1,11.812,2.967,28.109,28.109,0,0,1,9.461,8.677,31.92,31.92,0,0,1,9.965-8.845,23.718,23.718,0,0,1,11.308-2.8,20.52,20.52,0,0,1,15.147,6.158,26.237,26.237,0,0,1,7.469,14.891h-6.606a17.921,17.921,0,0,0-5.206-10.244,14.842,14.842,0,0,0-10.8-4.087,18.106,18.106,0,0,0-10.636,3.471,24.587,24.587,0,0,0-7.949,9.853H81.985a24.323,24.323,0,0,0-7.837-9.8,17.913,17.913,0,0,0-10.636-3.527A15.886,15.886,0,0,0,51.42,227.7a17.329,17.329,0,0,0-4.7,12.372,21.824,21.824,0,0,0,1.735,8.509,40.1,40.1,0,0,0,6.033,9.412,139.182,139.182,0,0,0,11.7,12.316q7.4,7.046,18.6,17.346,3.583-3.247,6.774-6.046t6.326-5.486l.743.725,1.609,1.57,1.609,1.57.743.725q-3.023,2.687-6.27,5.486t-6.942,6.158Zm32.469-17.8V264.143H102.7v-6.718h14.555V242.871h6.718v14.555h14.555v6.718H123.971V278.7Z" transform="translate(-40 -216)" fill="#9a81ff"></path></svg>