<svg xmlns="http://www.w3.org/2000/svg" width="109.484" height="79.5" viewBox="0 0 109.484 79.5"><path id="local_shipping_FILL0_wght400_GRAD0_opsz48" d="M62.907,335.5a14.637,14.637,0,0,1-14.7-14.681H40V263.465A7.654,7.654,0,0,1,47.465,256H119.5v20.777h13.063l16.92,22.519v21.523H140.65a14.681,14.681,0,1,1-29.361,0H77.573A14.63,14.63,0,0,1,62.907,335.5Zm-.015-7.465a7.221,7.221,0,1,0-5.1-2.115A6.952,6.952,0,0,0,62.892,328.035ZM47.465,313.354H50.2A16.466,16.466,0,0,1,55.557,308a13.991,13.991,0,0,1,14.489.062,17.335,17.335,0,0,1,5.412,5.288h36.577v-49.89H47.465Zm78.5,14.681a7.221,7.221,0,1,0-5.1-2.115A6.952,6.952,0,0,0,125.969,328.035Zm-6.469-25.38h23.141l-13.81-18.413H119.5ZM79.812,289.716Z" transform="translate(-40 -256)" fill="#2a6eb0"></path></svg>