<svg xmlns="http://www.w3.org/2000/svg" width="93.04" height="80" viewBox="0 0 93.04 80"><path id="shopping_basket_FILL0_wght400_GRAD0_opsz48" d="M53.505,253a4.808,4.808,0,0,1-2.988-1,4.651,4.651,0,0,1-1.73-2.569L36.939,206.761a3.06,3.06,0,0,1,.577-2.831,3.234,3.234,0,0,1,2.674-1.258h20.97l19.4-28.309a4.38,4.38,0,0,1,1.153-1,3.119,3.119,0,0,1,2.936,0,4.38,4.38,0,0,1,1.153,1l19.292,28.309h21.494a3.13,3.13,0,0,1,2.569,1.258,3.06,3.06,0,0,1,.577,2.831l-11.953,42.674a4.651,4.651,0,0,1-1.73,2.569,4.808,4.808,0,0,1-2.988,1Zm1.048-6.291h57.457l10.59-37.746H44.069Zm28.729-12.582a6.265,6.265,0,1,0-4.456-1.835A6.067,6.067,0,0,0,83.282,234.127ZM68.813,202.672H97.437L83.178,181.7ZM54.554,246.709h0Z" transform="translate(-36.815 -173)" fill="#2a6eb0"></path></svg>