<svg xmlns="http://www.w3.org/2000/svg" width="81.081" height="89.301" viewBox="0 0 81.081 89.301"><path id="swipe_left_FILL0_wght400_GRAD0_opsz48" d="M80,159.847V140.567h5.074V149.4a62.324,62.324,0,0,1,16.541-9.742A50.638,50.638,0,0,1,120.591,136a55.078,55.078,0,0,1,17.995,2.773,38.9,38.9,0,0,1,9.2,4.585q10.858,7.357,13.294,15.983H155.7q-2.537-6.089-11.569-12.177t-23.543-6.089a45.1,45.1,0,0,0-18.114,3.805,60.627,60.627,0,0,0-15.78,9.894H99.281v5.074ZM114.669,225.3a7.988,7.988,0,0,1-3.21-.66,8.535,8.535,0,0,1-2.644-1.771l-20.9-20.91L93.6,196.1a9.99,9.99,0,0,1,3.2-2.2,5.561,5.561,0,0,1,3.7-.254l7.915,1.827V162.384a10.148,10.148,0,1,1,20.3,0v18.266h2.638a4.171,4.171,0,0,1,.945.1,8.18,8.18,0,0,1,.984.3l14.917,6.7a7.2,7.2,0,0,1,3.6,3.585,8.178,8.178,0,0,1,.66,5.143l-3.665,22.11a7.654,7.654,0,0,1-2.809,4.832,8.172,8.172,0,0,1-5.3,1.877Zm-.775-6.089h28.516l4.364-25.268L128.2,185.522h-5.581V162.384a4.062,4.062,0,1,0-8.118,0v40.49l-15.628-3.349-2.334,2.334Zm0,0h0Z" transform="translate(-80 -136)" fill="#9a81ff"></path></svg>